<?xml version="1.0" encoding="UTF-8" standalone="no"?><svg xmlns="http://www.w3.org/2000/svg" xmlns:xlink="http://www.w3.org/1999/xlink" contentStyleType="text/css" height="385px" preserveAspectRatio="none" style="width:931px;height:385px;background:#FFFFFF;" version="1.1" viewBox="0 0 931 385" width="931px" zoomAndPan="magnify"><defs/><g><rect fill="#FFFFFF" height="294.1055" style="stroke:#181818;stroke-width:1.0;" width="10" x="17.5" y="46.4883"/><rect fill="#FFFFFF" height="294.1055" style="stroke:#181818;stroke-width:1.0;" width="10" x="547" y="46.4883"/><rect fill="#FFFFFF" height="146.5527" style="stroke:#181818;stroke-width:1.0;" width="10" x="887" y="67.7988"/><line style="stroke:#181818;stroke-width:0.5;stroke-dasharray:5.0,5.0;" x1="22" x2="22" y1="36.4883" y2="349.5938"/><line style="stroke:#181818;stroke-width:0.5;stroke-dasharray:5.0,5.0;" x1="100" x2="100" y1="36.4883" y2="349.5938"/><line style="stroke:#181818;stroke-width:0.5;stroke-dasharray:5.0,5.0;" x1="185" x2="185" y1="36.4883" y2="349.5938"/><line style="stroke:#181818;stroke-width:0.5;stroke-dasharray:5.0,5.0;" x1="552" x2="552" y1="36.4883" y2="349.5938"/><line style="stroke:#181818;stroke-width:0.5;stroke-dasharray:5.0,5.0;" x1="892" x2="892" y1="36.4883" y2="349.5938"/><rect fill="#E2E2F0" height="30.4883" rx="2.5" ry="2.5" style="stroke:#181818;stroke-width:0.5;" width="35" x="5" y="5"/><text fill="#000000" font-family="sans-serif" font-size="14" lengthAdjust="spacing" textLength="21" x="12" y="25.5352">RIS</text><rect fill="#E2E2F0" height="30.4883" rx="2.5" ry="2.5" style="stroke:#181818;stroke-width:0.5;" width="35" x="5" y="348.5938"/><text fill="#000000" font-family="sans-serif" font-size="14" lengthAdjust="spacing" textLength="21" x="12" y="369.1289">RIS</text><rect fill="#E2E2F0" height="30.4883" rx="2.5" ry="2.5" style="stroke:#181818;stroke-width:0.5;" width="100" x="50" y="5"/><text fill="#000000" font-family="sans-serif" font-size="14" lengthAdjust="spacing" textLength="86" x="57" y="25.5352">Result Board</text><rect fill="#E2E2F0" height="30.4883" rx="2.5" ry="2.5" style="stroke:#181818;stroke-width:0.5;" width="100" x="50" y="348.5938"/><text fill="#000000" font-family="sans-serif" font-size="14" lengthAdjust="spacing" textLength="86" x="57" y="369.1289">Result Board</text><rect fill="#E2E2F0" height="30.4883" rx="2.5" ry="2.5" style="stroke:#181818;stroke-width:0.5;" width="50" x="160" y="5"/><text fill="#000000" font-family="sans-serif" font-size="14" lengthAdjust="spacing" textLength="36" x="167" y="25.5352">PACS</text><rect fill="#E2E2F0" height="30.4883" rx="2.5" ry="2.5" style="stroke:#181818;stroke-width:0.5;" width="50" x="160" y="348.5938"/><text fill="#000000" font-family="sans-serif" font-size="14" lengthAdjust="spacing" textLength="36" x="167" y="369.1289">PACS</text><rect fill="#E2E2F0" height="30.4883" rx="2.5" ry="2.5" style="stroke:#181818;stroke-width:0.5;" width="40" x="532" y="5"/><text fill="#000000" font-family="sans-serif" font-size="14" lengthAdjust="spacing" textLength="26" x="539" y="25.5352">ISAI</text><rect fill="#E2E2F0" height="30.4883" rx="2.5" ry="2.5" style="stroke:#181818;stroke-width:0.5;" width="40" x="532" y="348.5938"/><text fill="#000000" font-family="sans-serif" font-size="14" lengthAdjust="spacing" textLength="26" x="539" y="369.1289">ISAI</text><rect fill="#E2E2F0" height="30.4883" rx="2.5" ry="2.5" style="stroke:#181818;stroke-width:0.5;" width="66" x="859" y="5"/><text fill="#000000" font-family="sans-serif" font-size="14" lengthAdjust="spacing" textLength="52" x="866" y="25.5352">Shukun</text><rect fill="#E2E2F0" height="30.4883" rx="2.5" ry="2.5" style="stroke:#181818;stroke-width:0.5;" width="66" x="859" y="348.5938"/><text fill="#000000" font-family="sans-serif" font-size="14" lengthAdjust="spacing" textLength="52" x="866" y="369.1289">Shukun</text><rect fill="#FFFFFF" height="294.1055" style="stroke:#181818;stroke-width:1.0;" width="10" x="17.5" y="46.4883"/><rect fill="#FFFFFF" height="294.1055" style="stroke:#181818;stroke-width:1.0;" width="10" x="547" y="46.4883"/><rect fill="#FFFFFF" height="146.5527" style="stroke:#181818;stroke-width:1.0;" width="10" x="887" y="67.7988"/><polygon fill="#181818" points="535,63.7988,545,67.7988,535,71.7988,539,67.7988" style="stroke:#181818;stroke-width:1.0;"/><line style="stroke:#181818;stroke-width:1.0;" x1="185" x2="541" y1="67.7988" y2="67.7988"/><text fill="#000000" font-family="sans-serif" font-size="13" lengthAdjust="spacing" textLength="269" x="192" y="63.0566">9 Notify image acquisition completed (Pr3)</text><polygon fill="#181818" points="875,93.1094,885,97.1094,875,101.1094,879,97.1094" style="stroke:#181818;stroke-width:1.0;"/><line style="stroke:#181818;stroke-width:1.0;" x1="557" x2="881" y1="97.1094" y2="97.1094"/><text fill="#000000" font-family="sans-serif" font-size="13" lengthAdjust="spacing" textLength="80" x="564" y="92.3672">start Shukun</text><polygon fill="#181818" points="875,122.4199,885,126.4199,875,130.4199,879,126.4199" style="stroke:#181818;stroke-width:1.0;"/><line style="stroke:#181818;stroke-width:1.0;" x1="557" x2="881" y1="126.4199" y2="126.4199"/><text fill="#000000" font-family="sans-serif" font-size="13" lengthAdjust="spacing" textLength="306" x="564" y="121.6777">? Send parameters to AI algorithms as input (Pr3)</text><polygon fill="#181818" points="196,151.7305,186,155.7305,196,159.7305,192,155.7305" style="stroke:#181818;stroke-width:1.0;"/><polygon fill="#181818" points="875,151.7305,885,155.7305,875,159.7305,879,155.7305" style="stroke:#181818;stroke-width:1.0;"/><line style="stroke:#181818;stroke-width:1.0;" x1="190" x2="881" y1="155.7305" y2="155.7305"/><text fill="#000000" font-family="sans-serif" font-size="13" lengthAdjust="spacing" textLength="179" x="202" y="150.9883">? load image data from PACS</text><polygon fill="#181818" points="568,181.041,558,185.041,568,189.041,564,185.041" style="stroke:#181818;stroke-width:1.0;"/><line style="stroke:#181818;stroke-width:1.0;" x1="562" x2="886" y1="185.041" y2="185.041"/><text fill="#000000" font-family="sans-serif" font-size="13" lengthAdjust="spacing" textLength="231" x="574" y="180.2988">? Send raw AI execution results (Pr 2)</text><polygon fill="#181818" points="880,210.3516,890,214.3516,880,218.3516,884,214.3516" style="stroke:#181818;stroke-width:1.0;"/><line style="stroke:#181818;stroke-width:1.0;" x1="557" x2="886" y1="214.3516" y2="214.3516"/><text fill="#000000" font-family="sans-serif" font-size="13" lengthAdjust="spacing" textLength="113" x="564" y="209.6094">shutdown Shukun</text><line style="stroke:#181818;stroke-width:1.0;" x1="100" x2="110" y1="243.6621" y2="239.6621"/><line style="stroke:#181818;stroke-width:1.0;" x1="100" x2="110" y1="243.6621" y2="247.6621"/><line style="stroke:#181818;stroke-width:1.0;" x1="100" x2="546" y1="243.6621" y2="243.6621"/><text fill="#000000" font-family="sans-serif" font-size="13" lengthAdjust="spacing" textLength="216" x="117" y="238.9199">14 Send AI execution results (Pr 3)</text><line style="stroke:#181818;stroke-width:1.0;" x1="545" x2="535" y1="272.9727" y2="268.9727"/><line style="stroke:#181818;stroke-width:1.0;" x1="545" x2="535" y1="272.9727" y2="276.9727"/><line style="stroke:#181818;stroke-width:1.0;" x1="100" x2="546" y1="272.9727" y2="272.9727"/><text fill="#000000" font-family="sans-serif" font-size="13" lengthAdjust="spacing" textLength="219" x="107" y="268.2305">the feedback from the result board</text><line style="stroke:#181818;stroke-width:1.0;" x1="185" x2="195" y1="302.2832" y2="298.2832"/><line style="stroke:#181818;stroke-width:1.0;" x1="185" x2="195" y1="302.2832" y2="306.2832"/><line style="stroke:#181818;stroke-width:1.0;" x1="185" x2="546" y1="302.2832" y2="302.2832"/><text fill="#000000" font-family="sans-serif" font-size="13" lengthAdjust="spacing" textLength="338" x="202" y="297.541">19 send the clinical data store approval / reject. (Pr 3)</text><line style="stroke:#181818;stroke-width:1.0;" x1="27.5" x2="37.5" y1="331.5938" y2="327.5938"/><line style="stroke:#181818;stroke-width:1.0;" x1="27.5" x2="37.5" y1="331.5938" y2="335.5938"/><line style="stroke:#181818;stroke-width:1.0;" x1="27.5" x2="546" y1="331.5938" y2="331.5938"/><text fill="#000000" font-family="sans-serif" font-size="13" lengthAdjust="spacing" textLength="313" x="44.5" y="326.8516">15 send AI execution results （Pr 1) 赛迈特锐，RIS</text><!--MD5=[2d74ae7420cdd56cafb606239fe6d444]
@startuml


participant "RIS" as RIS
participant "Result Board" as AIR
participant "PACS" as PACS
participant "ISAI" as ISAI
participant "Shukun" as Shukun

activate ISAI
activate RIS
PACS -> ISAI: 9 Notify image acquisition completed (Pr3)
activate Shukun
ISAI -> Shukun: start Shukun
ISAI -> Shukun: ? Send parameters to AI algorithms as input (Pr3)
PACS <-> Shukun: ? load image data from PACS
Shukun -> ISAI: ? Send raw AI execution results (Pr 2)
ISAI -> Shukun: shutdown Shukun
deactivate Shukun

ISAI->> AIR: 14 Send AI execution results (Pr 3)
AIR->>  ISAI: the feedback from the result board
ISAI->> PACS: 19 send the clinical data store approval / reject. (Pr 3)
ISAI->> RIS: 15 send AI execution results （Pr 1) 赛迈特锐，RIS
@enduml

PlantUML version 1.2022.5(Sat Apr 30 18:55:52 CST 2022)
(GPL source distribution)
Java Runtime: OpenJDK Runtime Environment
JVM: OpenJDK 64-Bit Server VM
Default Encoding: UTF-8
Language: en
Country: US
--></g></svg>