<?xml version="1.0" encoding="UTF-8" standalone="no"?><svg xmlns="http://www.w3.org/2000/svg" xmlns:xlink="http://www.w3.org/1999/xlink" contentStyleType="text/css" height="485.7631px" preserveAspectRatio="none" style="width:500px;height:485px;background:#FFFFFF;" version="1.1" viewBox="0 0 500 485" width="500.5695px" zoomAndPan="magnify"><defs/><g><rect height="15.0844" style="stroke:#00000000;stroke-width:0.5694760820045558;fill:none;" width="121.2984" x="190.4897" y="5.6948"/><text fill="#000000" font-family="sans-serif" font-size="7.9727" font-weight="bold" lengthAdjust="spacing" textLength="115.6036" x="193.3371" y="16.2501">Seuqnce Diagram by Felicity</text><rect fill="#FFFFFF" height="54.2381" style="stroke:#181818;stroke-width:0.5694760820045558;" width="5.6948" x="88.8383" y="47.8226"/><rect fill="#FFFFFF" height="25.4106" style="stroke:#181818;stroke-width:0.5694760820045558;" width="5.6948" x="88.8383" y="142.8473"/><rect fill="#FFFFFF" height="62.3877" style="stroke:#181818;stroke-width:0.5694760820045558;" width="5.6948" x="88.8383" y="338.5524"/><rect fill="#FFFFFF" height="57.4782" style="stroke:#181818;stroke-width:0.5694760820045558;" width="5.6948" x="165.7175" y="85.3691"/><rect fill="#FFFFFF" height="167.8397" style="stroke:#181818;stroke-width:0.5694760820045558;" width="5.6948" x="266.5148" y="123.3083"/><rect fill="#FFFFFF" height="34.5223" style="stroke:#181818;stroke-width:0.5694760820045558;" width="5.6948" x="266.5148" y="426.3507"/><rect fill="#FFFFFF" height="25.4106" style="stroke:#181818;stroke-width:0.5694760820045558;" width="5.6948" x="364.4647" y="59.9585"/><rect fill="#FFFFFF" height="292.6151" style="stroke:#181818;stroke-width:0.5694760820045558;" width="5.6948" x="364.4647" y="168.2579"/><rect fill="#FFFFFF" height="59.9329" style="stroke:#181818;stroke-width:0.5694760820045558;" width="5.6948" x="469.2483" y="400.9401"/><rect height="195.1357" style="stroke:#000000;stroke-width:0.8542141230068336;fill:none;" width="421.1276" x="76.0251" y="261.1815"/><line style="stroke:#181818;stroke-width:0.2847380410022779;fill:none;stroke-dasharray:5.0,5.0;" x1="91.4009" x2="91.4009" y1="42.1279" y2="465.9983"/><line style="stroke:#181818;stroke-width:0.2847380410022779;fill:none;stroke-dasharray:5.0,5.0;" x1="168.5649" x2="168.5649" y1="42.1279" y2="465.9983"/><line style="stroke:#181818;stroke-width:0.2847380410022779;fill:none;stroke-dasharray:5.0,5.0;" x1="269.3622" x2="269.3622" y1="42.1279" y2="465.9983"/><line style="stroke:#181818;stroke-width:0.2847380410022779;fill:none;stroke-dasharray:5.0,5.0;" x1="367.3121" x2="367.3121" y1="42.1279" y2="465.9983"/><line style="stroke:#181818;stroke-width:0.2847380410022779;fill:none;stroke-dasharray:5.0,5.0;" x1="472.0957" x2="472.0957" y1="42.1279" y2="465.9983"/><rect fill="#E2E2F0" height="17.3623" rx="1.4237" ry="1.4237" style="stroke:#181818;stroke-width:0.2847380410022779;" width="19.9317" x="81.7198" y="24.1961"/><text fill="#000000" font-family="sans-serif" font-size="7.9727" lengthAdjust="spacing" textLength="11.959" x="85.7062" y="35.8903">RIS</text><rect fill="#E2E2F0" height="17.3623" rx="1.4237" ry="1.4237" style="stroke:#181818;stroke-width:0.2847380410022779;" width="19.9317" x="81.7198" y="465.4288"/><text fill="#000000" font-family="sans-serif" font-size="7.9727" lengthAdjust="spacing" textLength="11.959" x="85.7062" y="477.1231">RIS</text><rect fill="#E2E2F0" height="17.3623" rx="1.4237" ry="1.4237" style="stroke:#181818;stroke-width:0.2847380410022779;" width="41.0023" x="148.0638" y="24.1961"/><text fill="#000000" font-family="sans-serif" font-size="7.9727" lengthAdjust="spacing" textLength="33.0296" x="152.0501" y="35.8903">Modality</text><rect fill="#E2E2F0" height="17.3623" rx="1.4237" ry="1.4237" style="stroke:#181818;stroke-width:0.2847380410022779;" width="41.0023" x="148.0638" y="465.4288"/><text fill="#000000" font-family="sans-serif" font-size="7.9727" lengthAdjust="spacing" textLength="33.0296" x="152.0501" y="477.1231">Modality</text><rect fill="#E2E2F0" height="17.3623" rx="1.4237" ry="1.4237" style="stroke:#181818;stroke-width:0.2847380410022779;" width="28.4738" x="255.1253" y="24.1961"/><text fill="#000000" font-family="sans-serif" font-size="7.9727" lengthAdjust="spacing" textLength="20.5011" x="259.1116" y="35.8903">PACS</text><rect fill="#E2E2F0" height="17.3623" rx="1.4237" ry="1.4237" style="stroke:#181818;stroke-width:0.2847380410022779;" width="28.4738" x="255.1253" y="465.4288"/><text fill="#000000" font-family="sans-serif" font-size="7.9727" lengthAdjust="spacing" textLength="20.5011" x="259.1116" y="477.1231">PACS</text><rect fill="#E2E2F0" height="17.3623" rx="1.4237" ry="1.4237" style="stroke:#181818;stroke-width:0.2847380410022779;" width="22.779" x="355.9226" y="24.1961"/><text fill="#000000" font-family="sans-serif" font-size="7.9727" lengthAdjust="spacing" textLength="14.8064" x="359.9089" y="35.8903">ISAI</text><rect fill="#E2E2F0" height="17.3623" rx="1.4237" ry="1.4237" style="stroke:#181818;stroke-width:0.2847380410022779;" width="22.779" x="355.9226" y="465.4288"/><text fill="#000000" font-family="sans-serif" font-size="7.9727" lengthAdjust="spacing" textLength="14.8064" x="359.9089" y="477.1231">ISAI</text><rect fill="#E2E2F0" height="17.3623" rx="1.4237" ry="1.4237" style="stroke:#181818;stroke-width:0.2847380410022779;" width="38.7244" x="452.7335" y="24.1961"/><text fill="#000000" font-family="sans-serif" font-size="7.9727" lengthAdjust="spacing" textLength="30.7517" x="456.7198" y="35.8903">SMIT SR</text><rect fill="#E2E2F0" height="17.3623" rx="1.4237" ry="1.4237" style="stroke:#181818;stroke-width:0.2847380410022779;" width="38.7244" x="452.7335" y="465.4288"/><text fill="#000000" font-family="sans-serif" font-size="7.9727" lengthAdjust="spacing" textLength="30.7517" x="456.7198" y="477.1231">SMIT SR</text><rect fill="#FFFFFF" height="54.2381" style="stroke:#181818;stroke-width:0.5694760820045558;" width="5.6948" x="88.8383" y="47.8226"/><rect fill="#FFFFFF" height="25.4106" style="stroke:#181818;stroke-width:0.5694760820045558;" width="5.6948" x="88.8383" y="142.8473"/><rect fill="#FFFFFF" height="62.3877" style="stroke:#181818;stroke-width:0.5694760820045558;" width="5.6948" x="88.8383" y="338.5524"/><rect fill="#FFFFFF" height="57.4782" style="stroke:#181818;stroke-width:0.5694760820045558;" width="5.6948" x="165.7175" y="85.3691"/><rect fill="#FFFFFF" height="167.8397" style="stroke:#181818;stroke-width:0.5694760820045558;" width="5.6948" x="266.5148" y="123.3083"/><rect fill="#FFFFFF" height="34.5223" style="stroke:#181818;stroke-width:0.5694760820045558;" width="5.6948" x="266.5148" y="426.3507"/><rect fill="#FFFFFF" height="25.4106" style="stroke:#181818;stroke-width:0.5694760820045558;" width="5.6948" x="364.4647" y="59.9585"/><rect fill="#FFFFFF" height="292.6151" style="stroke:#181818;stroke-width:0.5694760820045558;" width="5.6948" x="364.4647" y="168.2579"/><rect fill="#FFFFFF" height="59.9329" style="stroke:#181818;stroke-width:0.5694760820045558;" width="5.6948" x="469.2483" y="400.9401"/><polygon fill="#181818" points="82.0046,57.6806,87.6993,59.9585,82.0046,62.2364,84.2825,59.9585" style="stroke:#181818;stroke-width:0.5694760820045558;"/><line style="stroke:#181818;stroke-width:0.5694760820045558;" x1="0" x2="85.4214" y1="59.9585" y2="59.9585"/><text fill="#000000" font-family="sans-serif" font-size="7.4032" lengthAdjust="spacing" textLength="78.0182" x="3.9863" y="57.2579">1. patient registration</text><polygon fill="#181818" points="360.4784,83.0912,366.1731,85.3691,360.4784,87.647,362.7563,85.3691" style="stroke:#181818;stroke-width:0.5694760820045558;"/><line style="stroke:#181818;stroke-width:0.5694760820045558;" x1="94.533" x2="363.8952" y1="85.3691" y2="85.3691"/><text fill="#000000" font-family="sans-serif" font-size="7.4032" lengthAdjust="spacing" textLength="34.1686" x="98.5194" y="73.9496">2. patient</text><text fill="#000000" font-family="sans-serif" font-size="7.4032" lengthAdjust="spacing" textLength="67.1982" x="98.5194" y="82.6686">registration（VDO)</text><polygon fill="#181818" points="158.8838,99.7829,164.5786,102.0608,158.8838,104.3387,161.1617,102.0608" style="stroke:#181818;stroke-width:0.5694760820045558;"/><line style="stroke:#181818;stroke-width:0.5694760820045558;" x1="91.6856" x2="162.3007" y1="102.0608" y2="102.0608"/><text fill="#000000" font-family="sans-serif" font-size="7.4032" lengthAdjust="spacing" textLength="57.5171" x="95.672" y="99.3602">3. send worklist</text><line style="stroke:#181818;stroke-width:0.5694760820045558;" x1="171.4123" x2="198.1777" y1="115.9051" y2="115.9051"/><line style="stroke:#181818;stroke-width:0.5694760820045558;" x1="198.1777" x2="198.1777" y1="115.9051" y2="123.3083"/><line style="stroke:#181818;stroke-width:0.5694760820045558;" x1="174.8292" x2="198.1777" y1="123.3083" y2="123.3083"/><polygon fill="#181818" points="180.5239,121.0304,174.8292,123.3083,180.5239,125.5862,178.246,123.3083" style="stroke:#181818;stroke-width:0.5694760820045558;"/><text fill="#000000" font-family="sans-serif" font-size="7.4032" lengthAdjust="spacing" textLength="72.8929" x="178.246" y="113.2045">4. image acquisition</text><polygon fill="#181818" points="259.6811,140.5694,265.3759,142.8473,259.6811,145.1252,261.959,142.8473" style="stroke:#181818;stroke-width:0.5694760820045558;"/><line style="stroke:#181818;stroke-width:0.5694760820045558;" x1="168.5649" x2="263.0979" y1="142.8473" y2="142.8473"/><text fill="#000000" font-family="sans-serif" font-size="7.4032" lengthAdjust="spacing" textLength="81.4351" x="172.5513" y="140.1467">5. send DICOM images</text><polygon fill="#181818" points="97.9499,165.98,92.2551,168.2579,97.9499,170.5358,95.672,168.2579" style="stroke:#181818;stroke-width:0.5694760820045558;"/><line style="stroke:#181818;stroke-width:0.5694760820045558;" x1="94.533" x2="265.9453" y1="168.2579" y2="168.2579"/><text fill="#000000" font-family="sans-serif" font-size="7.4032" lengthAdjust="spacing" textLength="54.1002" x="101.3667" y="156.8384">6. notify image</text><text fill="#000000" font-family="sans-serif" font-size="7.4032" lengthAdjust="spacing" textLength="79.7267" x="101.3667" y="165.5574">acquisition completed</text><polygon fill="#181818" points="357.631,200.1097,363.3257,202.3876,357.631,204.6655,359.9089,202.3876" style="stroke:#181818;stroke-width:0.5694760820045558;"/><line style="stroke:#181818;stroke-width:0.5694760820045558;" x1="272.2096" x2="361.0478" y1="202.3876" y2="202.3876"/><text fill="#000000" font-family="sans-serif" font-size="7.4032" lengthAdjust="spacing" textLength="54.1002" x="276.1959" y="182.249">7. notify image</text><text fill="#000000" font-family="sans-serif" font-size="7.4032" lengthAdjust="spacing" textLength="39.8633" x="276.1959" y="190.968">acquisition</text><text fill="#000000" font-family="sans-serif" font-size="7.4032" lengthAdjust="spacing" textLength="58.0866" x="276.1959" y="199.687">completed(VDO)</text><line style="stroke:#181818;stroke-width:0.5694760820045558;" x1="370.1595" x2="394.0774" y1="245.2362" y2="245.2362"/><line style="stroke:#181818;stroke-width:0.5694760820045558;" x1="394.0774" x2="394.0774" y1="245.2362" y2="252.6394"/><line style="stroke:#181818;stroke-width:0.5694760820045558;" x1="370.7289" x2="394.0774" y1="252.6394" y2="252.6394"/><polygon fill="#181818" points="376.4237,250.3615,370.7289,252.6394,376.4237,254.9173,374.1458,252.6394" style="stroke:#181818;stroke-width:0.5694760820045558;"/><text fill="#000000" font-family="sans-serif" font-size="7.4032" lengthAdjust="spacing" textLength="51.2528" x="374.1458" y="216.3787">8. Filtering for</text><text fill="#000000" font-family="sans-serif" font-size="7.4032" lengthAdjust="spacing" textLength="76.3098" x="374.1458" y="225.0977">notification based on</text><text fill="#000000" font-family="sans-serif" font-size="7.4032" lengthAdjust="spacing" textLength="70.0456" x="374.1458" y="233.8166">supported modality</text><text fill="#000000" font-family="sans-serif" font-size="7.4032" lengthAdjust="spacing" textLength="67.1982" x="374.1458" y="242.5356">type and body part</text><path d="M76.0251,261.1815 L125,261.1815 L125,265.3447 L119.3052,271.0395 L76.0251,271.0395 L76.0251,261.1815 " fill="#EEEEEE" style="stroke:#000000;stroke-width:0.8542141230068336;"/><rect fill="none" height="195.1357" style="stroke:#000000;stroke-width:0.8542141230068336;" width="421.1276" x="76.0251" y="261.1815"/><text fill="#000000" font-family="sans-serif" font-size="7.4032" font-weight="bold" lengthAdjust="spacing" textLength="23.3485" x="84.5672" y="268.9084">group</text><polygon fill="#181818" points="278.4738,280.8974,272.779,283.1753,278.4738,285.4532,276.1959,283.1753" style="stroke:#181818;stroke-width:0.5694760820045558;"/><line style="stroke:#181818;stroke-width:0.5694760820045558;" x1="275.0569" x2="363.8952" y1="283.1753" y2="283.1753"/><text fill="#000000" font-family="sans-serif" font-size="7.4032" lengthAdjust="spacing" textLength="78.5877" x="281.8907" y="280.4748">9. DICOM Q/R images</text><polygon fill="#181818" points="357.631,288.8701,363.3257,291.148,357.631,293.4259,359.9089,291.148" style="stroke:#181818;stroke-width:0.5694760820045558;"/><line style="stroke:#181818;stroke-width:0.5694760820045558;" x1="269.3622" x2="361.0478" y1="291.148" y2="291.148"/><line style="stroke:#181818;stroke-width:0.5694760820045558;" x1="370.1595" x2="396.9248" y1="331.1492" y2="331.1492"/><line style="stroke:#181818;stroke-width:0.5694760820045558;" x1="396.9248" x2="396.9248" y1="331.1492" y2="338.5524"/><line style="stroke:#181818;stroke-width:0.5694760820045558;" x1="373.5763" x2="396.9248" y1="338.5524" y2="338.5524"/><polygon fill="#181818" points="379.2711,336.2745,373.5763,338.5524,379.2711,340.8303,376.9932,338.5524" style="stroke:#181818;stroke-width:0.5694760820045558;"/><text fill="#000000" font-family="sans-serif" font-size="7.4032" lengthAdjust="spacing" textLength="63.2118" x="376.9932" y="302.2917">10. AI application</text><text fill="#000000" font-family="sans-serif" font-size="7.4032" lengthAdjust="spacing" textLength="74.6014" x="376.9932" y="311.0107">execution (algorithm</text><text fill="#000000" font-family="sans-serif" font-size="7.4032" lengthAdjust="spacing" textLength="82.574" x="376.9932" y="319.7297">provided by AI vendors</text><text fill="#000000" font-family="sans-serif" font-size="7.4032" lengthAdjust="spacing" textLength="73.4624" x="376.9932" y="328.4487">with docker image）</text><polygon fill="#181818" points="100.7973,364.5325,95.1025,366.8104,100.7973,369.0883,98.5194,366.8104" style="stroke:#181818;stroke-width:0.5694760820045558;"/><line style="stroke:#181818;stroke-width:0.5694760820045558;" x1="97.3804" x2="363.8952" y1="366.8104" y2="366.8104"/><text fill="#000000" font-family="sans-serif" font-size="7.4032" lengthAdjust="spacing" textLength="78.0182" x="104.2141" y="355.3909">11. send AI execution</text><text fill="#000000" font-family="sans-serif" font-size="7.4032" lengthAdjust="spacing" textLength="52.3918" x="104.2141" y="364.1099">running status</text><polygon fill="#181818" points="357.631,398.6622,363.3257,400.9401,357.631,403.218,359.9089,400.9401" style="stroke:#181818;stroke-width:0.5694760820045558;"/><line style="stroke:#181818;stroke-width:0.5694760820045558;" x1="91.6856" x2="361.0478" y1="400.9401" y2="400.9401"/><text fill="#000000" font-family="sans-serif" font-size="7.4032" lengthAdjust="spacing" textLength="79.1572" x="95.672" y="380.8015">12. confirm results by</text><text fill="#000000" font-family="sans-serif" font-size="7.4032" lengthAdjust="spacing" textLength="83.713" x="95.672" y="389.5205">invoking the ISAI result</text><text fill="#000000" font-family="sans-serif" font-size="7.4032" lengthAdjust="spacing" textLength="58.0866" x="95.672" y="398.2395">audit dashboard</text><polygon fill="#181818" points="462.4146,424.0728,468.1093,426.3507,462.4146,428.6286,464.6925,426.3507" style="stroke:#181818;stroke-width:0.5694760820045558;"/><line style="stroke:#181818;stroke-width:0.5694760820045558;" x1="370.1595" x2="465.8314" y1="426.3507" y2="426.3507"/><text fill="#000000" font-family="sans-serif" font-size="7.4032" lengthAdjust="spacing" textLength="83.1435" x="374.1458" y="414.9312">13. send the confirmed</text><text fill="#000000" font-family="sans-serif" font-size="7.4032" lengthAdjust="spacing" textLength="84.8519" x="374.1458" y="423.6502">results(key image/json)</text><polygon fill="#181818" points="278.4738,449.4835,272.779,451.7614,278.4738,454.0393,276.1959,451.7614" style="stroke:#181818;stroke-width:0.5694760820045558;"/><line style="stroke:#181818;stroke-width:0.5694760820045558;" x1="275.0569" x2="363.8952" y1="451.7614" y2="451.7614"/><text fill="#000000" font-family="sans-serif" font-size="7.4032" lengthAdjust="spacing" textLength="44.4191" x="281.8907" y="440.3418">14. send the</text><text fill="#000000" font-family="sans-serif" font-size="7.4032" lengthAdjust="spacing" textLength="76.3098" x="281.8907" y="449.0608">AI-processed images</text><!--MD5=[e38d07e089fe9a5d8aab45b410250d2f]
@startuml
title "Seuqnce Diagram by Felicity"

skinparam maxMessageSize 150
scale 500 width

participant "RIS" as R
participant "Modality" as M
participant "PACS" as P
participant "ISAI" as I
participant "SMIT SR" as S

activate R
 -> R: 1. patient registration
activate I
R -> I: 2. patient registration（VDO)
deactivate I
activate M
R -> M: 3. send worklist
deactivate R
M -> M: 4. image acquisition
activate P
M -> P: 5. send DICOM images
deactivate M
activate R
P -> R: 6. notify image acquisition completed
deactivate R
activate I
P -> I: 7. notify image acquisition completed(VDO)

I -> I: 8. Filtering for notification based on supported modality type and body part

group
P <- I: 9. DICOM Q/R images
P -> I:
deactivate P
I -> I: 10. AI application execution (algorithm provided by AI vendors with docker image）
activate R
I -> R: 11. send AI execution running status
R -> I: 12. confirm results by invoking the ISAI result audit dashboard
deactivate R
activate S
I -> S: 13. send the confirmed results(key image/json)
activate P
I -> P: 14. send the AI-processed images
end

@enduml

PlantUML version 1.2022.5(Sat Apr 30 18:55:52 CST 2022)
(GPL source distribution)
Java Runtime: OpenJDK Runtime Environment
JVM: OpenJDK 64-Bit Server VM
Default Encoding: UTF-8
Language: en
Country: US
--></g></svg>