<?xml version="1.0" encoding="UTF-8" standalone="no"?><svg xmlns="http://www.w3.org/2000/svg" xmlns:xlink="http://www.w3.org/1999/xlink" contentStyleType="text/css" height="1292px" preserveAspectRatio="none" style="width:948px;height:1292px;background:#FFFFFF;" version="1.1" viewBox="0 0 948 1292" width="948px" zoomAndPan="magnify"><defs/><g><rect fill="#FFFFFF" height="124.5527" style="stroke:#181818;stroke-width:1.0;" width="10" x="33.5" y="882.4941"/><rect fill="#FFFFFF" height="178.8633" style="stroke:#181818;stroke-width:1.0;" width="10" x="199.5" y="91.4883"/><rect fill="#FFFFFF" height="44.6211" style="stroke:#181818;stroke-width:1.0;" width="10" x="199.5" y="348.9727"/><rect fill="#FFFFFF" height="222.7949" style="stroke:#181818;stroke-width:1.0;" width="10" x="199.5" y="828.873"/><rect fill="#FFFFFF" height="137.9316" style="stroke:#181818;stroke-width:1.0;" width="10" x="334.5" y="211.041"/><rect fill="#FFFFFF" height="163.1738" style="stroke:#181818;stroke-width:1.0;" width="10" x="511.5" y="314.6621"/><rect fill="#FFFFFF" height="128.2422" style="stroke:#181818;stroke-width:1.0;" width="10" x="686.5" y="112.7988"/><rect fill="#FFFFFF" height="398.6582" style="stroke:#181818;stroke-width:1.0;" width="10" x="686.5" y="393.5938"/><rect fill="#FFFFFF" height="151.1738" style="stroke:#181818;stroke-width:1.0;" width="10" x="686.5" y="1051.668"/><rect fill="#FFFFFF" height="146.2422" style="stroke:#181818;stroke-width:1.0;" width="10" x="865.5" y="646.0098"/><rect height="150.5527" style="stroke:#000000;stroke-width:1.5;fill:none;" width="544.5" x="177" y="127.7988"/><rect height="376.6582" style="stroke:#000000;stroke-width:1.5;fill:none;" width="460.5" x="481.5" y="408.5938"/><rect height="350.9688" style="stroke:#000000;stroke-width:1.5;fill:none;" width="914.5" x="10" y="843.873"/><line style="stroke:#181818;stroke-width:0.5;fill:none;stroke-dasharray:5.0,5.0;" x1="38" x2="38" y1="81.4883" y2="1211.8418"/><line style="stroke:#181818;stroke-width:0.5;fill:none;stroke-dasharray:5.0,5.0;" x1="204" x2="204" y1="81.4883" y2="1211.8418"/><line style="stroke:#181818;stroke-width:0.5;fill:none;stroke-dasharray:5.0,5.0;" x1="339.5" x2="339.5" y1="81.4883" y2="1211.8418"/><line style="stroke:#181818;stroke-width:0.5;fill:none;stroke-dasharray:5.0,5.0;" x1="516.5" x2="516.5" y1="81.4883" y2="1211.8418"/><line style="stroke:#181818;stroke-width:0.5;fill:none;stroke-dasharray:5.0,5.0;" x1="691.5" x2="691.5" y1="81.4883" y2="1211.8418"/><line style="stroke:#181818;stroke-width:0.5;fill:none;stroke-dasharray:5.0,5.0;" x1="870.5" x2="870.5" y1="81.4883" y2="1211.8418"/><text fill="#000000" font-family="sans-serif" font-size="14" lengthAdjust="spacing" textLength="31" x="20" y="78.5352">User</text><ellipse cx="38.5" cy="13.5" fill="#E2E2F0" rx="8" ry="8" style="stroke:#181818;stroke-width:0.5;"/><path d="M38.5,21.5 L38.5,48.5 M25.5,29.5 L51.5,29.5 M38.5,48.5 L25.5,63.5 M38.5,48.5 L51.5,63.5 " fill="none" style="stroke:#181818;stroke-width:0.5;"/><text fill="#000000" font-family="sans-serif" font-size="14" lengthAdjust="spacing" textLength="31" x="20" y="1224.377">User</text><ellipse cx="38.5" cy="1235.8301" fill="#E2E2F0" rx="8" ry="8" style="stroke:#181818;stroke-width:0.5;"/><path d="M38.5,1243.8301 L38.5,1270.8301 M25.5,1251.8301 L51.5,1251.8301 M38.5,1270.8301 L25.5,1285.8301 M38.5,1270.8301 L51.5,1285.8301 " fill="none" style="stroke:#181818;stroke-width:0.5;"/><rect fill="#E2E2F0" height="30.4883" rx="2.5" ry="2.5" style="stroke:#181818;stroke-width:0.5;" width="35" x="187" y="50"/><text fill="#000000" font-family="sans-serif" font-size="14" lengthAdjust="spacing" textLength="21" x="194" y="70.5352">RIS</text><rect fill="#E2E2F0" height="30.4883" rx="2.5" ry="2.5" style="stroke:#181818;stroke-width:0.5;" width="35" x="187" y="1210.8418"/><text fill="#000000" font-family="sans-serif" font-size="14" lengthAdjust="spacing" textLength="21" x="194" y="1231.377">RIS</text><rect fill="#E2E2F0" height="30.4883" rx="2.5" ry="2.5" style="stroke:#181818;stroke-width:0.5;" width="72" x="303.5" y="50"/><text fill="#000000" font-family="sans-serif" font-size="14" lengthAdjust="spacing" textLength="58" x="310.5" y="70.5352">Modality</text><rect fill="#E2E2F0" height="30.4883" rx="2.5" ry="2.5" style="stroke:#181818;stroke-width:0.5;" width="72" x="303.5" y="1210.8418"/><text fill="#000000" font-family="sans-serif" font-size="14" lengthAdjust="spacing" textLength="58" x="310.5" y="1231.377">Modality</text><rect fill="#E2E2F0" height="30.4883" rx="2.5" ry="2.5" style="stroke:#181818;stroke-width:0.5;" width="50" x="491.5" y="50"/><text fill="#000000" font-family="sans-serif" font-size="14" lengthAdjust="spacing" textLength="36" x="498.5" y="70.5352">PACS</text><rect fill="#E2E2F0" height="30.4883" rx="2.5" ry="2.5" style="stroke:#181818;stroke-width:0.5;" width="50" x="491.5" y="1210.8418"/><text fill="#000000" font-family="sans-serif" font-size="14" lengthAdjust="spacing" textLength="36" x="498.5" y="1231.377">PACS</text><rect fill="#E2E2F0" height="30.4883" rx="2.5" ry="2.5" style="stroke:#181818;stroke-width:0.5;" width="40" x="671.5" y="50"/><text fill="#000000" font-family="sans-serif" font-size="14" lengthAdjust="spacing" textLength="26" x="678.5" y="70.5352">ISAI</text><rect fill="#E2E2F0" height="30.4883" rx="2.5" ry="2.5" style="stroke:#181818;stroke-width:0.5;" width="40" x="671.5" y="1210.8418"/><text fill="#000000" font-family="sans-serif" font-size="14" lengthAdjust="spacing" textLength="26" x="678.5" y="1231.377">ISAI</text><rect fill="#E2E2F0" height="46.9766" rx="2.5" ry="2.5" style="stroke:#181818;stroke-width:0.5;" width="88" x="826.5" y="33.5117"/><text fill="#000000" font-family="sans-serif" font-size="14" lengthAdjust="spacing" textLength="63" x="839" y="54.0469">3rd party</text><text fill="#000000" font-family="sans-serif" font-size="14" lengthAdjust="spacing" textLength="74" x="833.5" y="70.5352">algorithms</text><rect fill="#E2E2F0" height="46.9766" rx="2.5" ry="2.5" style="stroke:#181818;stroke-width:0.5;" width="88" x="826.5" y="1210.8418"/><text fill="#000000" font-family="sans-serif" font-size="14" lengthAdjust="spacing" textLength="63" x="839" y="1231.377">3rd party</text><text fill="#000000" font-family="sans-serif" font-size="14" lengthAdjust="spacing" textLength="74" x="833.5" y="1247.8652">algorithms</text><rect fill="#FFFFFF" height="124.5527" style="stroke:#181818;stroke-width:1.0;" width="10" x="33.5" y="882.4941"/><rect fill="#FFFFFF" height="178.8633" style="stroke:#181818;stroke-width:1.0;" width="10" x="199.5" y="91.4883"/><rect fill="#FFFFFF" height="44.6211" style="stroke:#181818;stroke-width:1.0;" width="10" x="199.5" y="348.9727"/><rect fill="#FFFFFF" height="222.7949" style="stroke:#181818;stroke-width:1.0;" width="10" x="199.5" y="828.873"/><rect fill="#FFFFFF" height="137.9316" style="stroke:#181818;stroke-width:1.0;" width="10" x="334.5" y="211.041"/><rect fill="#FFFFFF" height="163.1738" style="stroke:#181818;stroke-width:1.0;" width="10" x="511.5" y="314.6621"/><rect fill="#FFFFFF" height="128.2422" style="stroke:#181818;stroke-width:1.0;" width="10" x="686.5" y="112.7988"/><rect fill="#FFFFFF" height="398.6582" style="stroke:#181818;stroke-width:1.0;" width="10" x="686.5" y="393.5938"/><rect fill="#FFFFFF" height="151.1738" style="stroke:#181818;stroke-width:1.0;" width="10" x="686.5" y="1051.668"/><rect fill="#FFFFFF" height="146.2422" style="stroke:#181818;stroke-width:1.0;" width="10" x="865.5" y="646.0098"/><polygon fill="#181818" points="187.5,108.7988,197.5,112.7988,187.5,116.7988,191.5,112.7988" style="stroke:#181818;stroke-width:1.0;"/><line style="stroke:#181818;stroke-width:1.0;" x1="38.5" x2="193.5" y1="112.7988" y2="112.7988"/><text fill="#000000" font-family="sans-serif" font-size="13" lengthAdjust="spacing" textLength="137" x="45.5" y="108.0566">1. patient registration</text><path d="M177,127.7988 L390,127.7988 L390,135.1094 L380,145.1094 L177,145.1094 L177,127.7988 " fill="#EEEEEE" style="stroke:#000000;stroke-width:1.5;"/><rect fill="none" height="150.5527" style="stroke:#000000;stroke-width:1.5;" width="544.5" x="177" y="127.7988"/><text fill="#000000" font-family="sans-serif" font-size="13" font-weight="bold" lengthAdjust="spacing" textLength="168" x="192" y="141.3672">Patient flow optimization</text><polygon fill="#181818" points="674.5,177.7305,684.5,181.7305,674.5,185.7305,678.5,181.7305" style="stroke:#181818;stroke-width:1.0;"/><line style="stroke:#181818;stroke-width:1.0;" x1="209.5" x2="680.5" y1="181.7305" y2="181.7305"/><text fill="#000000" font-family="sans-serif" font-size="13" lengthAdjust="spacing" textLength="60" x="216.5" y="161.6777">2. patient</text><text fill="#000000" font-family="sans-serif" font-size="13" lengthAdjust="spacing" textLength="118" x="216.5" y="176.9883">registration（VDO)</text><polygon fill="#181818" points="220.5,207.041,210.5,211.041,220.5,215.041,216.5,211.041" style="stroke:#181818;stroke-width:1.0;"/><line style="stroke:#181818;stroke-width:1.0;" x1="214.5" x2="685.5" y1="211.041" y2="211.041"/><text fill="#000000" font-family="sans-serif" font-size="13" lengthAdjust="spacing" textLength="122" x="226.5" y="206.2988">3. propose worklist</text><polygon fill="#181818" points="322.5,266.3516,332.5,270.3516,322.5,274.3516,326.5,270.3516" style="stroke:#181818;stroke-width:1.0;"/><line style="stroke:#181818;stroke-width:1.0;" x1="204.5" x2="328.5" y1="270.3516" y2="270.3516"/><text fill="#000000" font-family="sans-serif" font-size="13" lengthAdjust="spacing" textLength="101" x="211.5" y="265.6094">5. send worklist</text><line style="stroke:#181818;stroke-width:1.0;" x1="344.5" x2="391.5" y1="301.6621" y2="301.6621"/><line style="stroke:#181818;stroke-width:1.0;" x1="391.5" x2="391.5" y1="301.6621" y2="314.6621"/><line style="stroke:#181818;stroke-width:1.0;" x1="350.5" x2="391.5" y1="314.6621" y2="314.6621"/><polygon fill="#181818" points="360.5,310.6621,350.5,314.6621,360.5,318.6621,356.5,314.6621" style="stroke:#181818;stroke-width:1.0;"/><text fill="#000000" font-family="sans-serif" font-size="13" lengthAdjust="spacing" textLength="128" x="356.5" y="296.9199">6. image acquisition</text><polygon fill="#181818" points="499.5,344.9727,509.5,348.9727,499.5,352.9727,503.5,348.9727" style="stroke:#181818;stroke-width:1.0;"/><line style="stroke:#181818;stroke-width:1.0;" x1="339.5" x2="505.5" y1="348.9727" y2="348.9727"/><text fill="#000000" font-family="sans-serif" font-size="13" lengthAdjust="spacing" textLength="143" x="346.5" y="344.2305">7. send DICOM images</text><polygon fill="#181818" points="215.5,389.5938,205.5,393.5938,215.5,397.5938,211.5,393.5938" style="stroke:#181818;stroke-width:1.0;"/><line style="stroke:#181818;stroke-width:1.0;" x1="209.5" x2="510.5" y1="393.5938" y2="393.5938"/><text fill="#000000" font-family="sans-serif" font-size="13" lengthAdjust="spacing" textLength="95" x="221.5" y="373.541">8. notify image</text><text fill="#000000" font-family="sans-serif" font-size="13" lengthAdjust="spacing" textLength="140" x="221.5" y="388.8516">acquisition completed</text><path d="M481.5,408.5938 L634.5,408.5938 L634.5,415.9043 L624.5,425.9043 L481.5,425.9043 L481.5,408.5938 " fill="#EEEEEE" style="stroke:#000000;stroke-width:1.5;"/><rect fill="none" height="376.6582" style="stroke:#000000;stroke-width:1.5;" width="460.5" x="481.5" y="408.5938"/><text fill="#000000" font-family="sans-serif" font-size="13" font-weight="bold" lengthAdjust="spacing" textLength="108" x="496.5" y="422.1621">AI orchestration</text><polygon fill="#181818" points="674.5,473.8359,684.5,477.8359,674.5,481.8359,678.5,477.8359" style="stroke:#181818;stroke-width:1.0;"/><line style="stroke:#181818;stroke-width:1.0;" x1="516.5" x2="680.5" y1="477.8359" y2="477.8359"/><text fill="#000000" font-family="sans-serif" font-size="13" lengthAdjust="spacing" textLength="95" x="523.5" y="442.4727">9. notify image</text><text fill="#000000" font-family="sans-serif" font-size="13" lengthAdjust="spacing" textLength="70" x="523.5" y="457.7832">acquisition</text><text fill="#000000" font-family="sans-serif" font-size="13" lengthAdjust="spacing" textLength="102" x="523.5" y="473.0938">completed(VDO)</text><line style="stroke:#181818;stroke-width:1.0;" x1="696.5" x2="738.5" y1="553.0781" y2="553.0781"/><line style="stroke:#181818;stroke-width:1.0;" x1="738.5" x2="738.5" y1="553.0781" y2="566.0781"/><line style="stroke:#181818;stroke-width:1.0;" x1="697.5" x2="738.5" y1="566.0781" y2="566.0781"/><polygon fill="#181818" points="707.5,562.0781,697.5,566.0781,707.5,570.0781,703.5,566.0781" style="stroke:#181818;stroke-width:1.0;"/><text fill="#000000" font-family="sans-serif" font-size="13" lengthAdjust="spacing" textLength="98" x="703.5" y="502.4043">10. Filtering for</text><text fill="#000000" font-family="sans-serif" font-size="13" lengthAdjust="spacing" textLength="134" x="703.5" y="517.7148">notification based on</text><text fill="#000000" font-family="sans-serif" font-size="13" lengthAdjust="spacing" textLength="123" x="703.5" y="533.0254">supported modality</text><text fill="#000000" font-family="sans-serif" font-size="13" lengthAdjust="spacing" textLength="118" x="703.5" y="548.3359">type and body part</text><path d="M809,579.0781 L809,619.0781 L932,619.0781 L932,589.0781 L922,579.0781 L809,579.0781 " fill="#FEFFDD" style="stroke:#181818;stroke-width:0.5;"/><path d="M922,579.0781 L922,589.0781 L932,589.0781 L922,579.0781 " fill="#FEFFDD" style="stroke:#181818;stroke-width:0.5;"/><text fill="#000000" font-family="sans-serif" font-size="13" lengthAdjust="spacing" textLength="102" x="815" y="596.6465">algorithms from</text><text fill="#000000" font-family="sans-serif" font-size="13" lengthAdjust="spacing" textLength="67" x="815" y="611.957">AI vendors</text><polygon fill="#181818" points="853.5,642.0098,863.5,646.0098,853.5,650.0098,857.5,646.0098" style="stroke:#181818;stroke-width:1.0;"/><line style="stroke:#181818;stroke-width:1.0;stroke-dasharray:2.0,2.0;" x1="696.5" x2="859.5" y1="646.0098" y2="646.0098"/><text fill="#000000" font-family="sans-serif" font-size="13" lengthAdjust="spacing" textLength="103" x="703.5" y="641.2676">start AI instance</text><polygon fill="#181818" points="527.5,671.3203,517.5,675.3203,527.5,679.3203,523.5,675.3203" style="stroke:#181818;stroke-width:1.0;"/><line style="stroke:#181818;stroke-width:1.0;" x1="521.5" x2="685.5" y1="675.3203" y2="675.3203"/><text fill="#000000" font-family="sans-serif" font-size="13" lengthAdjust="spacing" textLength="146" x="533.5" y="670.5781">11. DICOM Q/R images</text><polygon fill="#181818" points="674.5,685.3203,684.5,689.3203,674.5,693.3203,678.5,689.3203" style="stroke:#181818;stroke-width:1.0;"/><line style="stroke:#181818;stroke-width:1.0;" x1="516.5" x2="680.5" y1="689.3203" y2="689.3203"/><polygon fill="#181818" points="853.5,729.9414,863.5,733.9414,853.5,737.9414,857.5,733.9414" style="stroke:#181818;stroke-width:1.0;"/><line style="stroke:#181818;stroke-width:1.0;" x1="696.5" x2="859.5" y1="733.9414" y2="733.9414"/><text fill="#000000" font-family="sans-serif" font-size="13" lengthAdjust="spacing" textLength="111" x="703.5" y="713.8887">12. AI application</text><text fill="#000000" font-family="sans-serif" font-size="13" lengthAdjust="spacing" textLength="62" x="703.5" y="729.1992">execution</text><polygon fill="#181818" points="707.5,743.9414,697.5,747.9414,707.5,751.9414,703.5,747.9414" style="stroke:#181818;stroke-width:1.0;"/><line style="stroke:#181818;stroke-width:1.0;" x1="701.5" x2="864.5" y1="747.9414" y2="747.9414"/><polygon fill="#181818" points="853.5,773.252,863.5,777.252,853.5,781.252,857.5,777.252" style="stroke:#181818;stroke-width:1.0;"/><line style="stroke:#181818;stroke-width:1.0;stroke-dasharray:2.0,2.0;" x1="696.5" x2="859.5" y1="777.252" y2="777.252"/><text fill="#000000" font-family="sans-serif" font-size="13" lengthAdjust="spacing" textLength="136" x="703.5" y="772.5098">tear down AI instance</text><polygon fill="#181818" points="220.5,824.873,210.5,828.873,220.5,832.873,216.5,828.873" style="stroke:#181818;stroke-width:1.0;"/><line style="stroke:#181818;stroke-width:1.0;" x1="214.5" x2="690.5" y1="828.873" y2="828.873"/><text fill="#000000" font-family="sans-serif" font-size="13" lengthAdjust="spacing" textLength="150" x="226.5" y="808.8203">13. update AI execution</text><text fill="#000000" font-family="sans-serif" font-size="13" lengthAdjust="spacing" textLength="55" x="226.5" y="824.1309">progress</text><path d="M10,843.873 L207,843.873 L207,851.1836 L197,861.1836 L10,861.1836 L10,843.873 " fill="#EEEEEE" style="stroke:#000000;stroke-width:1.5;"/><rect fill="none" height="350.9688" style="stroke:#000000;stroke-width:1.5;" width="914.5" x="10" y="843.873"/><text fill="#000000" font-family="sans-serif" font-size="13" font-weight="bold" lengthAdjust="spacing" textLength="152" x="25" y="857.4414">Interactive verification</text><polygon fill="#181818" points="220.5,878.4941,210.5,882.4941,220.5,886.4941,216.5,882.4941" style="stroke:#181818;stroke-width:1.0;"/><line style="stroke:#181818;stroke-width:1.0;" x1="214.5" x2="690.5" y1="882.4941" y2="882.4941"/><text fill="#006400" font-family="sans-serif" font-size="13" lengthAdjust="spacing" textLength="111" x="226.5" y="877.752">15. send AI result</text><polygon fill="#181818" points="54.5,907.8047,44.5,911.8047,54.5,915.8047,50.5,911.8047" style="stroke:#181818;stroke-width:1.0;"/><line style="stroke:#181818;stroke-width:1.0;stroke-dasharray:2.0,2.0;" x1="48.5" x2="198.5" y1="911.8047" y2="911.8047"/><text fill="#000000" font-family="sans-serif" font-size="13" lengthAdjust="spacing" textLength="81" x="60.5" y="907.0625">(show result)</text><path d="M112,924.8047 L112,979.8047 L297,979.8047 L297,934.8047 L287,924.8047 L112,924.8047 " fill="#FEFFDD" style="stroke:#181818;stroke-width:0.5;"/><path d="M287,924.8047 L287,934.8047 L297,934.8047 L287,924.8047 " fill="#FEFFDD" style="stroke:#181818;stroke-width:0.5;"/><text fill="#000000" font-family="sans-serif" font-size="13" lengthAdjust="spacing" textLength="131" x="118" y="942.373">User verify the result</text><text fill="#000000" font-family="sans-serif" font-size="13" lengthAdjust="spacing" textLength="164" x="118" y="957.6836">by choosing accept/reject</text><text fill="#000000" font-family="sans-serif" font-size="13" lengthAdjust="spacing" textLength="143" x="118" y="972.9941">on AI result dashboard</text><polygon fill="#181818" points="187.5,1003.0469,197.5,1007.0469,187.5,1011.0469,191.5,1007.0469" style="stroke:#181818;stroke-width:1.0;"/><line style="stroke:#181818;stroke-width:1.0;stroke-dasharray:2.0,2.0;" x1="38.5" x2="193.5" y1="1007.0469" y2="1007.0469"/><text fill="#000000" font-family="sans-serif" font-size="13" lengthAdjust="spacing" textLength="91" x="45.5" y="1002.3047">(accept/reject)</text><polygon fill="#181818" points="674.5,1047.668,684.5,1051.668,674.5,1055.668,678.5,1051.668" style="stroke:#181818;stroke-width:1.0;"/><line style="stroke:#181818;stroke-width:1.0;" x1="204.5" x2="680.5" y1="1051.668" y2="1051.668"/><text fill="#000000" font-family="sans-serif" font-size="13" lengthAdjust="spacing" textLength="146" x="211.5" y="1031.6152">17. Send the confirmed</text><text fill="#000000" font-family="sans-serif" font-size="13" lengthAdjust="spacing" textLength="36" x="211.5" y="1046.9258">result</text><polygon fill="#181818" points="858.5,1122.9102,868.5,1126.9102,858.5,1130.9102,862.5,1126.9102" style="stroke:#181818;stroke-width:1.0;"/><line style="stroke:#181818;stroke-width:1.0;" x1="696.5" x2="864.5" y1="1126.9102" y2="1126.9102"/><text fill="#000000" font-family="sans-serif" font-size="13" lengthAdjust="spacing" textLength="146" x="703.5" y="1076.2363">18. Send the confirmed</text><text fill="#000000" font-family="sans-serif" font-size="13" lengthAdjust="spacing" textLength="60" x="703.5" y="1091.5469">results to</text><text fill="#000000" font-family="sans-serif" font-size="13" lengthAdjust="spacing" textLength="94" x="703.5" y="1106.8574">algorithms(key</text><text fill="#000000" font-family="sans-serif" font-size="13" lengthAdjust="spacing" textLength="76" x="703.5" y="1122.168">image/json)</text><polygon fill="#181818" points="527.5,1182.8418,517.5,1186.8418,527.5,1190.8418,523.5,1186.8418" style="stroke:#181818;stroke-width:1.0;"/><line style="stroke:#181818;stroke-width:1.0;" x1="521.5" x2="685.5" y1="1186.8418" y2="1186.8418"/><text fill="#000000" font-family="sans-serif" font-size="13" lengthAdjust="spacing" textLength="80" x="533.5" y="1151.4785">19. Store the</text><text fill="#000000" font-family="sans-serif" font-size="13" lengthAdjust="spacing" textLength="125" x="533.5" y="1166.7891">AI-processed result</text><text fill="#000000" font-family="sans-serif" font-size="13" lengthAdjust="spacing" textLength="45" x="533.5" y="1182.0996">images</text><!--MD5=[28d8b98631145fb5c896052a86c3f787]
@startuml
skinparam maxMessageSize 150

actor "User" as U
participant "RIS" as R
participant "Modality" as M
participant "PACS" as P
participant "ISAI" as I
participant "3rd party\nalgorithms" as S

activate R
U -> R: 1. patient registration
activate I
group Patient flow optimization
R -> I: 2. patient registration（VDO)
R <- I: 3. propose worklist
activate M
deactivate I
R -> M: 5. send worklist
deactivate R
end

M -> M: 6. image acquisition
activate P
M -> P: 7. send DICOM images
deactivate M
activate R
P -> R: 8. notify image acquisition completed
deactivate R
group AI orchestration
activate I
P -> I: 9. notify image acquisition completed(VDO)
deactivate P

I -> I: 10. Filtering for notification based on supported modality type and body part
note over S
algorithms from
AI vendors
end note
I - -> S: start AI instance
activate S
P <- I: 11. DICOM Q/R images
P -> I:
I -> S: 12. AI application execution
I <- S:
I - -> S: tear down AI instance
end
deactivate S
deactivate I
I -> R: 13. update AI execution progress

group Interactive verification
activate R
I -> R: <font color="darkgreen">15. send AI result
activate U
R - -> U: (show result)
note over R
User verify the result
by choosing accept/reject
on AI result dashboard
end note
U - -> R: (accept/reject)
deactivate U
R -> I: 17. Send the confirmed result
deactivate R
activate I
I -> S: 18. Send the confirmed results to algorithms(key image/json)
I -> P: 19. Store the AI-processed result images
end
@enduml

PlantUML version 1.2022.5(Sat Apr 30 18:55:52 CST 2022)
(GPL source distribution)
Java Runtime: OpenJDK Runtime Environment
JVM: OpenJDK 64-Bit Server VM
Default Encoding: UTF-8
Language: en
Country: US
--></g></svg>