<?xml version="1.0" encoding="UTF-8" standalone="no"?><svg xmlns="http://www.w3.org/2000/svg" xmlns:xlink="http://www.w3.org/1999/xlink" contentStyleType="text/css" height="710px" preserveAspectRatio="none" style="width:697px;height:710px;background:#FFFFFF;" version="1.1" viewBox="0 0 697 710" width="697px" zoomAndPan="magnify"><defs/><g><rect fill="#FFFFFF" height="464.2793" style="stroke:#181818;stroke-width:1.0;" width="10" x="290" y="130.0859"/><rect fill="#FFFFFF" height="14" style="stroke:#181818;stroke-width:1.0;" width="10" x="295" y="270.6387"/><rect fill="#FFFFFF" height="204.8633" style="stroke:#181818;stroke-width:1.0;" width="10" x="427" y="241.3281"/><rect fill="#FFFFFF" height="71.6211" style="stroke:#181818;stroke-width:1.0;" width="10" x="583" y="338.2598"/><rect height="405.6582" style="stroke:#000000;stroke-width:1.5;fill:none;" width="472" x="219" y="145.0859"/><rect height="118.2422" style="stroke:#000000;stroke-width:1.5;fill:none;" width="279" x="402" y="299.6387"/><line style="stroke:#181818;stroke-width:0.5;fill:none;stroke-dasharray:5.0,5.0;" x1="129.5" x2="129.5" y1="69.4648" y2="641.6758"/><line style="stroke:#181818;stroke-width:0.5;fill:none;stroke-dasharray:5.0,5.0;" x1="295" x2="295" y1="69.4648" y2="641.6758"/><line style="stroke:#181818;stroke-width:0.5;fill:none;stroke-dasharray:5.0,5.0;" x1="432" x2="432" y1="69.4648" y2="641.6758"/><line style="stroke:#181818;stroke-width:0.5;fill:none;stroke-dasharray:5.0,5.0;" x1="492" x2="492" y1="69.4648" y2="641.6758"/><line style="stroke:#181818;stroke-width:0.5;fill:none;stroke-dasharray:5.0,5.0;" x1="588" x2="588" y1="69.4648" y2="641.6758"/><rect fill="#E2E2F0" height="30.4883" rx="2.5" ry="2.5" style="stroke:#181818;stroke-width:0.5;" width="35" x="112.5" y="37.9766"/><text fill="#000000" font-family="sans-serif" font-size="14" lengthAdjust="spacing" textLength="21" x="119.5" y="58.5117">RIS</text><rect fill="#E2E2F0" height="30.4883" rx="2.5" ry="2.5" style="stroke:#181818;stroke-width:0.5;" width="35" x="112.5" y="640.6758"/><text fill="#000000" font-family="sans-serif" font-size="14" lengthAdjust="spacing" textLength="21" x="119.5" y="661.2109">RIS</text><rect fill="#E2E2F0" height="30.4883" rx="2.5" ry="2.5" style="stroke:#181818;stroke-width:0.5;" width="72" x="259" y="37.9766"/><text fill="#000000" font-family="sans-serif" font-size="14" lengthAdjust="spacing" textLength="58" x="266" y="58.5117">Modality</text><rect fill="#E2E2F0" height="30.4883" rx="2.5" ry="2.5" style="stroke:#181818;stroke-width:0.5;" width="72" x="259" y="640.6758"/><text fill="#000000" font-family="sans-serif" font-size="14" lengthAdjust="spacing" textLength="58" x="266" y="661.2109">Modality</text><rect fill="#E2E2F0" height="30.4883" rx="2.5" ry="2.5" style="stroke:#181818;stroke-width:0.5;" width="40" x="412" y="37.9766"/><text fill="#000000" font-family="sans-serif" font-size="14" lengthAdjust="spacing" textLength="26" x="419" y="58.5117">ISAI</text><rect fill="#E2E2F0" height="30.4883" rx="2.5" ry="2.5" style="stroke:#181818;stroke-width:0.5;" width="40" x="412" y="640.6758"/><text fill="#000000" font-family="sans-serif" font-size="14" lengthAdjust="spacing" textLength="26" x="419" y="661.2109">ISAI</text><rect fill="#E2E2F0" height="63.4648" rx="2.5" ry="2.5" style="stroke:#181818;stroke-width:0.5;" width="61" x="462" y="5"/><text fill="#000000" font-family="sans-serif" font-size="14" lengthAdjust="spacing" textLength="26" x="479.5" y="25.5352">ISAI</text><text fill="#000000" font-family="sans-serif" font-size="14" lengthAdjust="spacing" textLength="47" x="469" y="42.0234">DICOM</text><text fill="#000000" font-family="sans-serif" font-size="14" lengthAdjust="spacing" textLength="42" x="471.5" y="58.5117">Cache</text><rect fill="#E2E2F0" height="63.4648" rx="2.5" ry="2.5" style="stroke:#181818;stroke-width:0.5;" width="61" x="462" y="640.6758"/><text fill="#000000" font-family="sans-serif" font-size="14" lengthAdjust="spacing" textLength="26" x="479.5" y="661.2109">ISAI</text><text fill="#000000" font-family="sans-serif" font-size="14" lengthAdjust="spacing" textLength="47" x="469" y="677.6992">DICOM</text><text fill="#000000" font-family="sans-serif" font-size="14" lengthAdjust="spacing" textLength="42" x="471.5" y="694.1875">Cache</text><rect fill="#E2E2F0" height="46.9766" rx="2.5" ry="2.5" style="stroke:#181818;stroke-width:0.5;" width="88" x="544" y="21.4883"/><text fill="#000000" font-family="sans-serif" font-size="14" lengthAdjust="spacing" textLength="63" x="556.5" y="42.0234">3rd party</text><text fill="#000000" font-family="sans-serif" font-size="14" lengthAdjust="spacing" textLength="74" x="551" y="58.5117">algorithms</text><rect fill="#E2E2F0" height="46.9766" rx="2.5" ry="2.5" style="stroke:#181818;stroke-width:0.5;" width="88" x="544" y="640.6758"/><text fill="#000000" font-family="sans-serif" font-size="14" lengthAdjust="spacing" textLength="63" x="556.5" y="661.2109">3rd party</text><text fill="#000000" font-family="sans-serif" font-size="14" lengthAdjust="spacing" textLength="74" x="551" y="677.6992">algorithms</text><rect fill="#FFFFFF" height="464.2793" style="stroke:#181818;stroke-width:1.0;" width="10" x="290" y="130.0859"/><rect fill="#FFFFFF" height="14" style="stroke:#181818;stroke-width:1.0;" width="10" x="295" y="270.6387"/><rect fill="#FFFFFF" height="204.8633" style="stroke:#181818;stroke-width:1.0;" width="10" x="427" y="241.3281"/><rect fill="#FFFFFF" height="71.6211" style="stroke:#181818;stroke-width:1.0;" width="10" x="583" y="338.2598"/><polygon fill="#181818" points="118,96.7754,128,100.7754,118,104.7754,122,100.7754" style="stroke:#181818;stroke-width:1.0;"/><line style="stroke:#181818;stroke-width:1.0;" x1="0" x2="124" y1="100.7754" y2="100.7754"/><text fill="#000000" font-family="sans-serif" font-size="13" lengthAdjust="spacing" textLength="90" x="7" y="96.0332">Imaging Order</text><polygon fill="#181818" points="278,126.0859,288,130.0859,278,134.0859,282,130.0859" style="stroke:#181818;stroke-width:1.0;"/><line style="stroke:#181818;stroke-width:1.0;" x1="130" x2="284" y1="130.0859" y2="130.0859"/><text fill="#000000" font-family="sans-serif" font-size="13" lengthAdjust="spacing" textLength="52" x="137" y="125.3438">Worklist</text><path d="M219,145.0859 L293,145.0859 L293,152.3965 L283,162.3965 L219,162.3965 L219,145.0859 " fill="#EEEEEE" style="stroke:#000000;stroke-width:1.5;"/><rect fill="none" height="405.6582" style="stroke:#000000;stroke-width:1.5;" width="472" x="219" y="145.0859"/><text fill="#000000" font-family="sans-serif" font-size="13" font-weight="bold" lengthAdjust="spacing" textLength="29" x="234" y="158.6543">loop</text><line style="stroke:#181818;stroke-width:1.0;" x1="300" x2="342" y1="183.707" y2="183.707"/><line style="stroke:#181818;stroke-width:1.0;" x1="342" x2="342" y1="183.707" y2="196.707"/><line style="stroke:#181818;stroke-width:1.0;" x1="301" x2="342" y1="196.707" y2="196.707"/><polygon fill="#181818" points="311,192.707,301,196.707,311,200.707,307,196.707" style="stroke:#181818;stroke-width:1.0;"/><text fill="#000000" font-family="sans-serif" font-size="13" lengthAdjust="spacing" textLength="29" x="307" y="178.9648">Scan</text><polygon fill="#181818" points="415,237.3281,425,241.3281,415,245.3281,419,241.3281" style="stroke:#181818;stroke-width:1.0;"/><line style="stroke:#181818;stroke-width:1.0;" x1="300" x2="421" y1="241.3281" y2="241.3281"/><text fill="#000000" font-family="sans-serif" font-size="13" lengthAdjust="spacing" textLength="89" x="307" y="221.2754">Request for AI</text><text fill="#000000" font-family="sans-serif" font-size="13" lengthAdjust="spacing" textLength="61" x="307" y="236.5859">algorithm</text><polygon fill="#181818" points="316,266.6387,306,270.6387,316,274.6387,312,270.6387" style="stroke:#181818;stroke-width:1.0;"/><line style="stroke:#181818;stroke-width:1.0;" x1="310" x2="491.5" y1="270.6387" y2="270.6387"/><text fill="#000000" font-family="sans-serif" font-size="13" lengthAdjust="spacing" textLength="69" x="322" y="265.8965">load image</text><polygon fill="#181818" points="480.5,280.6387,490.5,284.6387,480.5,288.6387,484.5,284.6387" style="stroke:#181818;stroke-width:1.0;"/><line style="stroke:#181818;stroke-width:1.0;stroke-dasharray:2.0,2.0;" x1="300" x2="486.5" y1="284.6387" y2="284.6387"/><path d="M402,299.6387 L515,299.6387 L515,306.9492 L505,316.9492 L402,316.9492 L402,299.6387 " fill="#EEEEEE" style="stroke:#000000;stroke-width:1.5;"/><rect fill="none" height="118.2422" style="stroke:#000000;stroke-width:1.5;" width="279" x="402" y="299.6387"/><text fill="#000000" font-family="sans-serif" font-size="13" font-weight="bold" lengthAdjust="spacing" textLength="68" x="417" y="313.207">Algorithm</text><polygon fill="#181818" points="571,334.2598,581,338.2598,571,342.2598,575,338.2598" style="stroke:#181818;stroke-width:1.0;"/><line style="stroke:#181818;stroke-width:1.0;" x1="437" x2="577" y1="338.2598" y2="338.2598"/><text fill="#000000" font-family="sans-serif" font-size="13" lengthAdjust="spacing" textLength="111" x="444" y="333.5176">Start AI algorithm</text><line style="stroke:#181818;stroke-width:1.0;" x1="593" x2="635" y1="367.5703" y2="367.5703"/><line style="stroke:#181818;stroke-width:1.0;" x1="635" x2="635" y1="367.5703" y2="380.5703"/><line style="stroke:#181818;stroke-width:1.0;" x1="594" x2="635" y1="380.5703" y2="380.5703"/><polygon fill="#181818" points="604,376.5703,594,380.5703,604,384.5703,600,380.5703" style="stroke:#181818;stroke-width:1.0;"/><text fill="#000000" font-family="sans-serif" font-size="13" lengthAdjust="spacing" textLength="69" x="600" y="362.8281">calculation</text><polygon fill="#181818" points="448,405.8809,438,409.8809,448,413.8809,444,409.8809" style="stroke:#181818;stroke-width:1.0;"/><line style="stroke:#181818;stroke-width:1.0;stroke-dasharray:2.0,2.0;" x1="442" x2="587" y1="409.8809" y2="409.8809"/><text fill="#000000" font-family="sans-serif" font-size="13" lengthAdjust="spacing" textLength="122" x="454" y="405.1387">AI result / Findings</text><polygon fill="#181818" points="311,442.1914,301,446.1914,311,450.1914,307,446.1914" style="stroke:#181818;stroke-width:1.0;"/><line style="stroke:#181818;stroke-width:1.0;stroke-dasharray:2.0,2.0;" x1="305" x2="431" y1="446.1914" y2="446.1914"/><text fill="#000000" font-family="sans-serif" font-size="13" lengthAdjust="spacing" textLength="103" x="317" y="441.4492">Algorithm result</text><path d="M229,459.1914 L229,545.1914 L360,545.1914 L360,469.1914 L350,459.1914 L229,459.1914 " fill="#FEFFDD" style="stroke:#181818;stroke-width:0.5;"/><path d="M350,459.1914 L350,469.1914 L360,469.1914 L350,459.1914 " fill="#FEFFDD" style="stroke:#181818;stroke-width:0.5;"/><text fill="#000000" font-family="sans-serif" font-size="13" lengthAdjust="spacing" textLength="109" x="235" y="476.7598">User interactively</text><text fill="#000000" font-family="sans-serif" font-size="13" lengthAdjust="spacing" textLength="94" x="235" y="492.0703">manipulate the</text><text fill="#000000" font-family="sans-serif" font-size="13" lengthAdjust="spacing" textLength="42" x="235" y="507.3809">image.</text><text fill="#000000" font-family="sans-serif" font-size="13" lengthAdjust="spacing" textLength="110" x="235" y="522.6914">The final result is</text><text fill="#000000" font-family="sans-serif" font-size="13" lengthAdjust="spacing" textLength="93" x="235" y="538.002">saved to PACS.</text><polygon fill="#181818" points="141,590.3652,131,594.3652,141,598.3652,137,594.3652" style="stroke:#181818;stroke-width:1.0;"/><line style="stroke:#181818;stroke-width:1.0;stroke-dasharray:2.0,2.0;" x1="135" x2="294" y1="594.3652" y2="594.3652"/><text fill="#000000" font-family="sans-serif" font-size="13" lengthAdjust="spacing" textLength="132" x="147" y="574.3125">AI Result / Structural</text><text fill="#000000" font-family="sans-serif" font-size="13" lengthAdjust="spacing" textLength="38" x="147" y="589.623">report</text><polygon fill="#181818" points="11,619.6758,1,623.6758,11,627.6758,7,623.6758" style="stroke:#181818;stroke-width:1.0;"/><line style="stroke:#181818;stroke-width:1.0;" x1="5" x2="129" y1="623.6758" y2="623.6758"/><text fill="#000000" font-family="sans-serif" font-size="13" lengthAdjust="spacing" textLength="106" x="17" y="618.9336">Structural Report</text><!--MD5=[8cadce2d5da86db7f0d1dbddcf1d5482]
@startuml
skinparam maxMessageSize 150

'actor "User" as U
participant "RIS" as R
participant "Modality" as M
participant "ISAI" as I
participant "ISAI\nDICOM\nCache" as P
participant "3rd party\nalgorithms" as S

 -> R : Imaging Order
R -> M++: Worklist
loop
M -> M: Scan
M -> I++: Request for AI algorithm
P -> M++: load image
return
group Algorithm
I -> S ++: Start AI algorithm
S -> S: calculation
'S -> P: result
return AI result / Findings
end
return Algorithm result
note over M
User interactively
manipulate the
image.
The final result is
saved to PACS.
end note
end
return AI Result / Structural report
 <- R: Structural Report




@enduml

@startuml
skinparam maxMessageSize 150

participant "RIS" as R
participant "Modality" as M
participant "ISAI" as I
participant "ISAI\nDICOM\nCache" as P
participant "3rd party\nalgorithms" as S

 -> R : Imaging Order
R -> M++: Worklist
loop
M -> M: Scan
M -> I++: Request for AI algorithm
P -> M++: load image
return
group Algorithm
I -> S ++: Start AI algorithm
S -> S: calculation
return AI result / Findings
end
return Algorithm result
note over M
User interactively
manipulate the
image.
The final result is
saved to PACS.
end note
end
return AI Result / Structural report
 <- R: Structural Report




@enduml

PlantUML version 1.2022.5(Sat Apr 30 18:55:52 CST 2022)
(GPL source distribution)
Java Runtime: OpenJDK Runtime Environment
JVM: OpenJDK 64-Bit Server VM
Default Encoding: UTF-8
Language: en
Country: US
--></g></svg>