<?xml version="1.0" encoding="UTF-8" standalone="no"?><svg xmlns="http://www.w3.org/2000/svg" xmlns:xlink="http://www.w3.org/1999/xlink" contentStyleType="text/css" height="510.0575px" preserveAspectRatio="none" style="width:500px;height:510px;background:#FFFFFF;" version="1.1" viewBox="0 0 500 510" width="500.7184px" zoomAndPan="magnify"><defs/><g><rect fill="#FFFFFF" height="333.534" style="stroke:#181818;stroke-width:0.7183908045977011;" width="7.1839" x="208.3333" y="93.4525"/><rect fill="#FFFFFF" height="10.0575" style="stroke:#181818;stroke-width:0.7183908045977011;" width="7.1839" x="211.9253" y="194.4243"/><rect fill="#FFFFFF" height="147.1719" style="stroke:#181818;stroke-width:0.7183908045977011;" width="7.1839" x="306.7529" y="173.3679"/><rect fill="#FFFFFF" height="51.4519" style="stroke:#181818;stroke-width:0.7183908045977011;" width="7.1839" x="418.8218" y="243.0027"/><rect height="291.4211" style="stroke:#000000;stroke-width:1.0775862068965516;fill:none;" width="339.0805" x="157.3276" y="104.2284"/><rect height="84.9441" style="stroke:#000000;stroke-width:1.0775862068965516;fill:none;" width="200.431" x="288.7931" y="215.2577"/><line style="stroke:#181818;stroke-width:0.35919540229885055;fill:none;stroke-dasharray:5.0,5.0;" x1="93.0316" x2="93.0316" y1="49.9029" y2="460.974"/><line style="stroke:#181818;stroke-width:0.35919540229885055;fill:none;stroke-dasharray:5.0,5.0;" x1="211.9253" x2="211.9253" y1="49.9029" y2="460.974"/><line style="stroke:#181818;stroke-width:0.35919540229885055;fill:none;stroke-dasharray:5.0,5.0;" x1="310.3448" x2="310.3448" y1="49.9029" y2="460.974"/><line style="stroke:#181818;stroke-width:0.35919540229885055;fill:none;stroke-dasharray:5.0,5.0;" x1="353.4483" x2="353.4483" y1="49.9029" y2="460.974"/><line style="stroke:#181818;stroke-width:0.35919540229885055;fill:none;stroke-dasharray:5.0,5.0;" x1="422.4138" x2="422.4138" y1="49.9029" y2="460.974"/><rect fill="#E2E2F0" height="21.9025" rx="1.796" ry="1.796" style="stroke:#181818;stroke-width:0.35919540229885055;" width="25.1437" x="80.819" y="27.282"/><text fill="#000000" font-family="sans-serif" font-size="10.0575" lengthAdjust="spacing" textLength="15.0862" x="85.8477" y="42.0343">RIS</text><rect fill="#E2E2F0" height="21.9025" rx="1.796" ry="1.796" style="stroke:#181818;stroke-width:0.35919540229885055;" width="25.1437" x="80.819" y="460.2556"/><text fill="#000000" font-family="sans-serif" font-size="10.0575" lengthAdjust="spacing" textLength="15.0862" x="85.8477" y="475.0079">RIS</text><rect fill="#E2E2F0" height="21.9025" rx="1.796" ry="1.796" style="stroke:#181818;stroke-width:0.35919540229885055;" width="51.7241" x="186.0632" y="27.282"/><text fill="#000000" font-family="sans-serif" font-size="10.0575" lengthAdjust="spacing" textLength="41.6667" x="191.092" y="42.0343">Modality</text><rect fill="#E2E2F0" height="21.9025" rx="1.796" ry="1.796" style="stroke:#181818;stroke-width:0.35919540229885055;" width="51.7241" x="186.0632" y="460.2556"/><text fill="#000000" font-family="sans-serif" font-size="10.0575" lengthAdjust="spacing" textLength="41.6667" x="191.092" y="475.0079">Modality</text><rect fill="#E2E2F0" height="21.9025" rx="1.796" ry="1.796" style="stroke:#181818;stroke-width:0.35919540229885055;" width="28.7356" x="295.977" y="27.282"/><text fill="#000000" font-family="sans-serif" font-size="10.0575" lengthAdjust="spacing" textLength="18.6782" x="301.0057" y="42.0343">ISAI</text><rect fill="#E2E2F0" height="21.9025" rx="1.796" ry="1.796" style="stroke:#181818;stroke-width:0.35919540229885055;" width="28.7356" x="295.977" y="460.2556"/><text fill="#000000" font-family="sans-serif" font-size="10.0575" lengthAdjust="spacing" textLength="18.6782" x="301.0057" y="475.0079">ISAI</text><rect fill="#E2E2F0" height="45.5926" rx="1.796" ry="1.796" style="stroke:#181818;stroke-width:0.35919540229885055;" width="43.8218" x="331.8966" y="3.592"/><text fill="#000000" font-family="sans-serif" font-size="10.0575" lengthAdjust="spacing" textLength="18.6782" x="344.4684" y="18.3442">ISAI</text><text fill="#000000" font-family="sans-serif" font-size="10.0575" lengthAdjust="spacing" textLength="33.7644" x="336.9253" y="30.1893">DICOM</text><text fill="#000000" font-family="sans-serif" font-size="10.0575" lengthAdjust="spacing" textLength="30.1724" x="338.7213" y="42.0343">Cache</text><rect fill="#E2E2F0" height="45.5926" rx="1.796" ry="1.796" style="stroke:#181818;stroke-width:0.35919540229885055;" width="43.8218" x="331.8966" y="460.2556"/><text fill="#000000" font-family="sans-serif" font-size="10.0575" lengthAdjust="spacing" textLength="18.6782" x="344.4684" y="475.0079">ISAI</text><text fill="#000000" font-family="sans-serif" font-size="10.0575" lengthAdjust="spacing" textLength="33.7644" x="336.9253" y="486.8529">DICOM</text><text fill="#000000" font-family="sans-serif" font-size="10.0575" lengthAdjust="spacing" textLength="30.1724" x="338.7213" y="498.6979">Cache</text><rect fill="#E2E2F0" height="33.7475" rx="1.796" ry="1.796" style="stroke:#181818;stroke-width:0.35919540229885055;" width="63.2184" x="390.8046" y="15.437"/><text fill="#000000" font-family="sans-serif" font-size="10.0575" lengthAdjust="spacing" textLength="45.2586" x="399.7845" y="30.1893">3rd party</text><text fill="#000000" font-family="sans-serif" font-size="10.0575" lengthAdjust="spacing" textLength="53.1609" x="395.8333" y="42.0343">algorithms</text><rect fill="#E2E2F0" height="33.7475" rx="1.796" ry="1.796" style="stroke:#181818;stroke-width:0.35919540229885055;" width="63.2184" x="390.8046" y="460.2556"/><text fill="#000000" font-family="sans-serif" font-size="10.0575" lengthAdjust="spacing" textLength="45.2586" x="399.7845" y="475.0079">3rd party</text><text fill="#000000" font-family="sans-serif" font-size="10.0575" lengthAdjust="spacing" textLength="53.1609" x="395.8333" y="486.8529">algorithms</text><rect fill="#FFFFFF" height="333.534" style="stroke:#181818;stroke-width:0.7183908045977011;" width="7.1839" x="208.3333" y="93.4525"/><rect fill="#FFFFFF" height="10.0575" style="stroke:#181818;stroke-width:0.7183908045977011;" width="7.1839" x="211.9253" y="194.4243"/><rect fill="#FFFFFF" height="147.1719" style="stroke:#181818;stroke-width:0.7183908045977011;" width="7.1839" x="306.7529" y="173.3679"/><rect fill="#FFFFFF" height="51.4519" style="stroke:#181818;stroke-width:0.7183908045977011;" width="7.1839" x="418.8218" y="243.0027"/><polygon fill="#181818" points="84.7701,69.5226,91.954,72.3961,84.7701,75.2697,87.6437,72.3961" style="stroke:#181818;stroke-width:0.7183908045977011;"/><line style="stroke:#181818;stroke-width:0.7183908045977011;" x1="0" x2="89.0805" y1="72.3961" y2="72.3961"/><text fill="#000000" font-family="sans-serif" font-size="9.3391" lengthAdjust="spacing" textLength="64.6552" x="5.0287" y="68.9894">Imaging Order</text><polygon fill="#181818" points="199.7126,90.579,206.8966,93.4525,199.7126,96.3261,202.5862,93.4525" style="stroke:#181818;stroke-width:0.7183908045977011;"/><line style="stroke:#181818;stroke-width:0.7183908045977011;" x1="93.3908" x2="204.023" y1="93.4525" y2="93.4525"/><text fill="#000000" font-family="sans-serif" font-size="9.3391" lengthAdjust="spacing" textLength="37.3563" x="98.4195" y="90.0458">Worklist</text><path d="M157.3276,104.2284 L210.4885,104.2284 L210.4885,109.4802 L203.3046,116.6641 L157.3276,116.6641 L157.3276,104.2284 " fill="#EEEEEE" style="stroke:#000000;stroke-width:1.0775862068965516;"/><rect fill="none" height="291.4211" style="stroke:#000000;stroke-width:1.0775862068965516;" width="339.0805" x="157.3276" y="104.2284"/><text fill="#000000" font-family="sans-serif" font-size="9.3391" font-weight="bold" lengthAdjust="spacing" textLength="20.8333" x="168.1034" y="113.9758">loop</text><line style="stroke:#181818;stroke-width:0.7183908045977011;" x1="215.5172" x2="245.6897" y1="131.9734" y2="131.9734"/><line style="stroke:#181818;stroke-width:0.7183908045977011;" x1="245.6897" x2="245.6897" y1="131.9734" y2="141.3125"/><line style="stroke:#181818;stroke-width:0.7183908045977011;" x1="216.2356" x2="245.6897" y1="141.3125" y2="141.3125"/><polygon fill="#181818" points="223.4195,138.439,216.2356,141.3125,223.4195,144.1861,220.546,141.3125" style="stroke:#181818;stroke-width:0.7183908045977011;"/><text fill="#000000" font-family="sans-serif" font-size="9.3391" lengthAdjust="spacing" textLength="20.8333" x="220.546" y="128.5667">Scan</text><polygon fill="#181818" points="298.1322,170.4943,305.3161,173.3679,298.1322,176.2415,301.0057,173.3679" style="stroke:#181818;stroke-width:0.7183908045977011;"/><line style="stroke:#181818;stroke-width:0.7183908045977011;" x1="215.5172" x2="302.4425" y1="173.3679" y2="173.3679"/><text fill="#000000" font-family="sans-serif" font-size="9.3391" lengthAdjust="spacing" textLength="63.9368" x="220.546" y="158.9622">Request for AI</text><text fill="#000000" font-family="sans-serif" font-size="9.3391" lengthAdjust="spacing" textLength="43.8218" x="220.546" y="169.9612">algorithm</text><polygon fill="#181818" points="227.0115,191.5508,219.8276,194.4243,227.0115,197.2979,224.1379,194.4243" style="stroke:#181818;stroke-width:0.7183908045977011;"/><line style="stroke:#181818;stroke-width:0.7183908045977011;" x1="222.7011" x2="353.0891" y1="194.4243" y2="194.4243"/><text fill="#000000" font-family="sans-serif" font-size="9.3391" lengthAdjust="spacing" textLength="49.569" x="231.3218" y="191.0176">load image</text><polygon fill="#181818" points="345.1868,201.6082,352.3707,204.4818,345.1868,207.3554,348.0603,204.4818" style="stroke:#181818;stroke-width:0.7183908045977011;"/><line style="stroke:#181818;stroke-width:0.7183908045977011;stroke-dasharray:2.0,2.0;" x1="215.5172" x2="349.4971" y1="204.4818" y2="204.4818"/><path d="M288.7931,215.2577 L369.9713,215.2577 L369.9713,220.5095 L362.7874,227.6934 L288.7931,227.6934 L288.7931,215.2577 " fill="#EEEEEE" style="stroke:#000000;stroke-width:1.0775862068965516;"/><rect fill="none" height="84.9441" style="stroke:#000000;stroke-width:1.0775862068965516;" width="200.431" x="288.7931" y="215.2577"/><text fill="#000000" font-family="sans-serif" font-size="9.3391" font-weight="bold" lengthAdjust="spacing" textLength="48.8506" x="299.569" y="225.0051">Algorithm</text><polygon fill="#181818" points="410.2011,240.1291,417.3851,243.0027,410.2011,245.8763,413.0747,243.0027" style="stroke:#181818;stroke-width:0.7183908045977011;"/><line style="stroke:#181818;stroke-width:0.7183908045977011;" x1="313.9368" x2="414.5115" y1="243.0027" y2="243.0027"/><text fill="#000000" font-family="sans-serif" font-size="9.3391" lengthAdjust="spacing" textLength="79.7414" x="318.9655" y="239.596">Start AI algorithm</text><line style="stroke:#181818;stroke-width:0.7183908045977011;" x1="426.0057" x2="456.1782" y1="264.0591" y2="264.0591"/><line style="stroke:#181818;stroke-width:0.7183908045977011;" x1="456.1782" x2="456.1782" y1="264.0591" y2="273.3982"/><line style="stroke:#181818;stroke-width:0.7183908045977011;" x1="426.7241" x2="456.1782" y1="273.3982" y2="273.3982"/><polygon fill="#181818" points="433.908,270.5246,426.7241,273.3982,433.908,276.2718,431.0345,273.3982" style="stroke:#181818;stroke-width:0.7183908045977011;"/><text fill="#000000" font-family="sans-serif" font-size="9.3391" lengthAdjust="spacing" textLength="49.569" x="431.0345" y="260.6524">calculation</text><polygon fill="#181818" points="321.8391,291.5811,314.6552,294.4546,321.8391,297.3282,318.9655,294.4546" style="stroke:#181818;stroke-width:0.7183908045977011;"/><line style="stroke:#181818;stroke-width:0.7183908045977011;stroke-dasharray:2.0,2.0;" x1="317.5287" x2="421.6954" y1="294.4546" y2="294.4546"/><text fill="#000000" font-family="sans-serif" font-size="9.3391" lengthAdjust="spacing" textLength="87.6437" x="326.1494" y="291.0479">AI result / Findings</text><polygon fill="#181818" points="223.4195,317.6662,216.2356,320.5398,223.4195,323.4134,220.546,320.5398" style="stroke:#181818;stroke-width:0.7183908045977011;"/><line style="stroke:#181818;stroke-width:0.7183908045977011;stroke-dasharray:2.0,2.0;" x1="219.1092" x2="309.6264" y1="320.5398" y2="320.5398"/><text fill="#000000" font-family="sans-serif" font-size="9.3391" lengthAdjust="spacing" textLength="73.9943" x="227.7299" y="317.1331">Algorithm result</text><path d="M164.5115,329.8789 L164.5115,391.6605 L258.6207,391.6605 L258.6207,337.0628 L251.4368,329.8789 L164.5115,329.8789 " fill="#FEFFDD" style="stroke:#181818;stroke-width:0.35919540229885055;"/><path d="M251.4368,329.8789 L251.4368,337.0628 L258.6207,337.0628 L251.4368,329.8789 " fill="#FEFFDD" style="stroke:#181818;stroke-width:0.35919540229885055;"/><text fill="#000000" font-family="sans-serif" font-size="9.3391" lengthAdjust="spacing" textLength="78.3046" x="168.8218" y="342.4998">User interactively</text><text fill="#000000" font-family="sans-serif" font-size="9.3391" lengthAdjust="spacing" textLength="67.5287" x="168.8218" y="353.4988">manipulate the</text><text fill="#000000" font-family="sans-serif" font-size="9.3391" lengthAdjust="spacing" textLength="30.1724" x="168.8218" y="364.4977">image.</text><text fill="#000000" font-family="sans-serif" font-size="9.3391" lengthAdjust="spacing" textLength="79.023" x="168.8218" y="375.4967">The final result is</text><text fill="#000000" font-family="sans-serif" font-size="9.3391" lengthAdjust="spacing" textLength="66.8103" x="168.8218" y="386.4957">saved to PACS.</text><polygon fill="#181818" points="101.2931,424.113,94.1092,426.9865,101.2931,429.8601,98.4195,426.9865" style="stroke:#181818;stroke-width:0.7183908045977011;"/><line style="stroke:#181818;stroke-width:0.7183908045977011;stroke-dasharray:2.0,2.0;" x1="96.9828" x2="211.2069" y1="426.9865" y2="426.9865"/><text fill="#000000" font-family="sans-serif" font-size="9.3391" lengthAdjust="spacing" textLength="94.8276" x="105.6034" y="412.5808">AI Result / Structural</text><text fill="#000000" font-family="sans-serif" font-size="9.3391" lengthAdjust="spacing" textLength="27.2989" x="105.6034" y="423.5798">report</text><polygon fill="#181818" points="7.9023,445.1694,0.7184,448.0429,7.9023,450.9165,5.0287,448.0429" style="stroke:#181818;stroke-width:0.7183908045977011;"/><line style="stroke:#181818;stroke-width:0.7183908045977011;" x1="3.592" x2="92.6724" y1="448.0429" y2="448.0429"/><text fill="#000000" font-family="sans-serif" font-size="9.3391" lengthAdjust="spacing" textLength="76.1494" x="12.2126" y="444.6362">Structural Report</text><!--MD5=[73902374b6a0862cf3f5ec131c7df804]
@startuml
skinparam maxMessageSize 150
scale 500 width

'actor "User" as U
participant "RIS" as R
participant "Modality" as M
participant "ISAI" as I
participant "ISAI\nDICOM\nCache" as P
participant "3rd party\nalgorithms" as S

 -> R : Imaging Order
R -> M++: Worklist
loop
M -> M: Scan
M -> I++: Request for AI algorithm
P -> M++: load image
return
group Algorithm
I -> S ++: Start AI algorithm
S -> S: calculation
'S -> P: result
return AI result / Findings
end
return Algorithm result
note over M
User interactively
manipulate the
image.
The final result is
saved to PACS.
end note
end
return AI Result / Structural report
 <- R: Structural Report




@enduml

@startuml
skinparam maxMessageSize 150
scale 500 width

participant "RIS" as R
participant "Modality" as M
participant "ISAI" as I
participant "ISAI\nDICOM\nCache" as P
participant "3rd party\nalgorithms" as S

 -> R : Imaging Order
R -> M++: Worklist
loop
M -> M: Scan
M -> I++: Request for AI algorithm
P -> M++: load image
return
group Algorithm
I -> S ++: Start AI algorithm
S -> S: calculation
return AI result / Findings
end
return Algorithm result
note over M
User interactively
manipulate the
image.
The final result is
saved to PACS.
end note
end
return AI Result / Structural report
 <- R: Structural Report




@enduml

PlantUML version 1.2022.5(Sat Apr 30 18:55:52 CST 2022)
(GPL source distribution)
Java Runtime: OpenJDK Runtime Environment
JVM: OpenJDK 64-Bit Server VM
Default Encoding: UTF-8
Language: en
Country: US
--></g></svg>