<?xml version="1.0" encoding="UTF-8" standalone="no"?><svg xmlns="http://www.w3.org/2000/svg" xmlns:xlink="http://www.w3.org/1999/xlink" contentStyleType="text/css" height="709.1136px" preserveAspectRatio="none" style="width:500px;height:709px;background:#FFFFFF;" version="1.1" viewBox="0 0 500 709" width="500.6242px" zoomAndPan="magnify"><defs/><g><rect height="16.5345" style="stroke:#00000000;stroke-width:0.6242197253433208;fill:none;" width="60.5493" x="220.9738" y="6.2422"/><text fill="#000000" font-family="sans-serif" font-size="8.7391" font-weight="bold" lengthAdjust="spacing" textLength="54.3071" x="224.0949" y="17.8122">Flow of ISAI</text><rect fill="#FFFFFF" height="553.1708" style="stroke:#181818;stroke-width:0.6242197253433208;" width="6.2422" x="181.0237" y="94.3108"/><rect fill="#FFFFFF" height="8.7391" style="stroke:#181818;stroke-width:0.6242197253433208;" width="6.2422" x="184.1448" y="242.3167"/><rect fill="#FFFFFF" height="419.9097" style="stroke:#181818;stroke-width:0.6242197253433208;" width="6.2422" x="266.5418" y="163.7504"/><rect fill="#FFFFFF" height="44.7073" style="stroke:#181818;stroke-width:0.6242197253433208;" width="6.2422" x="363.9201" y="284.5272"/><rect fill="#FFFFFF" height="44.7073" style="stroke:#181818;stroke-width:0.6242197253433208;" width="6.2422" x="426.3421" y="475.1312"/><rect height="516.5784" style="stroke:#000000;stroke-width:0.9363295880149812;fill:none;" width="404.4944" x="92.3845" y="103.6741"/><rect height="73.8091" style="stroke:#000000;stroke-width:0.9363295880149812;fill:none;" width="239.7004" x="250.9363" y="260.4191"/><rect height="73.8091" style="stroke:#000000;stroke-width:0.9363295880149812;fill:none;" width="236.5793" x="250.9363" y="451.0231"/><line style="stroke:#181818;stroke-width:0.3121098626716604;fill:none;stroke-dasharray:5.0,5.0;" x1="80.8365" x2="80.8365" y1="56.4699" y2="677.0138"/><line style="stroke:#181818;stroke-width:0.3121098626716604;fill:none;stroke-dasharray:5.0,5.0;" x1="184.1448" x2="184.1448" y1="56.4699" y2="677.0138"/><line style="stroke:#181818;stroke-width:0.3121098626716604;fill:none;stroke-dasharray:5.0,5.0;" x1="269.6629" x2="269.6629" y1="56.4699" y2="677.0138"/><line style="stroke:#181818;stroke-width:0.3121098626716604;fill:none;stroke-dasharray:5.0,5.0;" x1="367.0412" x2="367.0412" y1="56.4699" y2="677.0138"/><line style="stroke:#181818;stroke-width:0.3121098626716604;fill:none;stroke-dasharray:5.0,5.0;" x1="429.4632" x2="429.4632" y1="56.4699" y2="677.0138"/><rect fill="#E2E2F0" height="19.0314" rx="1.5605" ry="1.5605" style="stroke:#181818;stroke-width:0.3121098626716604;" width="21.8477" x="70.2247" y="36.8143"/><text fill="#000000" font-family="sans-serif" font-size="8.7391" lengthAdjust="spacing" textLength="13.1086" x="74.5943" y="49.6328">RIS</text><rect fill="#E2E2F0" height="19.0314" rx="1.5605" ry="1.5605" style="stroke:#181818;stroke-width:0.3121098626716604;" width="21.8477" x="70.2247" y="676.3896"/><text fill="#000000" font-family="sans-serif" font-size="8.7391" lengthAdjust="spacing" textLength="13.1086" x="74.5943" y="689.2081">RIS</text><rect fill="#E2E2F0" height="19.0314" rx="1.5605" ry="1.5605" style="stroke:#181818;stroke-width:0.3121098626716604;" width="44.9438" x="161.6729" y="36.8143"/><text fill="#000000" font-family="sans-serif" font-size="8.7391" lengthAdjust="spacing" textLength="36.2047" x="166.0424" y="49.6328">Modality</text><rect fill="#E2E2F0" height="19.0314" rx="1.5605" ry="1.5605" style="stroke:#181818;stroke-width:0.3121098626716604;" width="44.9438" x="161.6729" y="676.3896"/><text fill="#000000" font-family="sans-serif" font-size="8.7391" lengthAdjust="spacing" textLength="36.2047" x="166.0424" y="689.2081">Modality</text><rect fill="#E2E2F0" height="19.0314" rx="1.5605" ry="1.5605" style="stroke:#181818;stroke-width:0.3121098626716604;" width="24.9688" x="257.1785" y="36.8143"/><text fill="#000000" font-family="sans-serif" font-size="8.7391" lengthAdjust="spacing" textLength="16.2297" x="261.5481" y="49.6328">ISAI</text><rect fill="#E2E2F0" height="19.0314" rx="1.5605" ry="1.5605" style="stroke:#181818;stroke-width:0.3121098626716604;" width="24.9688" x="257.1785" y="676.3896"/><text fill="#000000" font-family="sans-serif" font-size="8.7391" lengthAdjust="spacing" textLength="16.2297" x="261.5481" y="689.2081">ISAI</text><rect fill="#E2E2F0" height="29.3237" rx="1.5605" ry="1.5605" style="stroke:#181818;stroke-width:0.3121098626716604;" width="54.9313" x="339.5755" y="26.522"/><text fill="#000000" font-family="sans-serif" font-size="8.7391" lengthAdjust="spacing" textLength="39.3258" x="347.3783" y="39.3405">3rd party</text><text fill="#000000" font-family="sans-serif" font-size="8.7391" lengthAdjust="spacing" textLength="46.1923" x="343.9451" y="49.6328">algorithms</text><rect fill="#E2E2F0" height="29.3237" rx="1.5605" ry="1.5605" style="stroke:#181818;stroke-width:0.3121098626716604;" width="54.9313" x="339.5755" y="676.3896"/><text fill="#000000" font-family="sans-serif" font-size="8.7391" lengthAdjust="spacing" textLength="39.3258" x="347.3783" y="689.2081">3rd party</text><text fill="#000000" font-family="sans-serif" font-size="8.7391" lengthAdjust="spacing" textLength="46.1923" x="343.9451" y="699.5004">algorithms</text><rect fill="#E2E2F0" height="19.0314" rx="1.5605" ry="1.5605" style="stroke:#181818;stroke-width:0.3121098626716604;" width="57.4282" x="400.7491" y="36.8143"/><text fill="#000000" font-family="sans-serif" font-size="8.7391" lengthAdjust="spacing" textLength="48.6891" x="405.1186" y="49.6328">Algorithm2</text><rect fill="#E2E2F0" height="19.0314" rx="1.5605" ry="1.5605" style="stroke:#181818;stroke-width:0.3121098626716604;" width="57.4282" x="400.7491" y="676.3896"/><text fill="#000000" font-family="sans-serif" font-size="8.7391" lengthAdjust="spacing" textLength="48.6891" x="405.1186" y="689.2081">Algorithm2</text><rect fill="#FFFFFF" height="553.1708" style="stroke:#181818;stroke-width:0.6242197253433208;" width="6.2422" x="181.0237" y="94.3108"/><rect fill="#FFFFFF" height="8.7391" style="stroke:#181818;stroke-width:0.6242197253433208;" width="6.2422" x="184.1448" y="242.3167"/><rect fill="#FFFFFF" height="419.9097" style="stroke:#181818;stroke-width:0.6242197253433208;" width="6.2422" x="266.5418" y="163.7504"/><rect fill="#FFFFFF" height="44.7073" style="stroke:#181818;stroke-width:0.6242197253433208;" width="6.2422" x="363.9201" y="284.5272"/><rect fill="#FFFFFF" height="44.7073" style="stroke:#181818;stroke-width:0.6242197253433208;" width="6.2422" x="426.3421" y="475.1312"/><polygon fill="#181818" points="73.6579,73.5177,79.9001,76.0146,73.6579,78.5115,76.1548,76.0146" style="stroke:#181818;stroke-width:0.6242197253433208;"/><line style="stroke:#181818;stroke-width:0.6242197253433208;" x1="0" x2="77.4032" y1="76.0146" y2="76.0146"/><text fill="#000000" font-family="sans-serif" font-size="8.1149" lengthAdjust="spacing" textLength="56.1798" x="4.3695" y="73.0544">Imaging Order</text><polygon fill="#181818" points="173.5331,91.8139,179.7753,94.3108,173.5331,96.8077,176.03,94.3108" style="stroke:#181818;stroke-width:0.6242197253433208;"/><line style="stroke:#181818;stroke-width:0.6242197253433208;" x1="81.1486" x2="177.2784" y1="94.3108" y2="94.3108"/><text fill="#000000" font-family="sans-serif" font-size="8.1149" lengthAdjust="spacing" textLength="32.4594" x="85.5181" y="91.3507">Worklist</text><path d="M92.3845,103.6741 L138.5768,103.6741 L138.5768,108.2375 L132.3346,114.4797 L92.3845,114.4797 L92.3845,103.6741 " fill="#EEEEEE" style="stroke:#000000;stroke-width:0.9363295880149812;"/><rect fill="none" height="516.5784" style="stroke:#000000;stroke-width:0.9363295880149812;" width="404.4944" x="92.3845" y="103.6741"/><text fill="#000000" font-family="sans-serif" font-size="8.1149" font-weight="bold" lengthAdjust="spacing" textLength="18.1024" x="101.7478" y="112.1438">loop</text><line style="stroke:#181818;stroke-width:0.6242197253433208;" x1="187.2659" x2="213.4831" y1="127.7822" y2="127.7822"/><line style="stroke:#181818;stroke-width:0.6242197253433208;" x1="213.4831" x2="213.4831" y1="127.7822" y2="135.897"/><line style="stroke:#181818;stroke-width:0.6242197253433208;" x1="187.8901" x2="213.4831" y1="135.897" y2="135.897"/><polygon fill="#181818" points="194.1323,133.4001,187.8901,135.897,194.1323,138.3939,191.6355,135.897" style="stroke:#181818;stroke-width:0.6242197253433208;"/><text fill="#000000" font-family="sans-serif" font-size="8.1149" lengthAdjust="spacing" textLength="18.1024" x="191.6355" y="124.822">Scan</text><polygon fill="#181818" points="259.0512,161.2535,265.2934,163.7504,259.0512,166.2473,261.5481,163.7504" style="stroke:#181818;stroke-width:0.6242197253433208;"/><line style="stroke:#181818;stroke-width:0.6242197253433208;" x1="187.2659" x2="262.7965" y1="163.7504" y2="163.7504"/><text fill="#000000" font-family="sans-serif" font-size="8.1149" lengthAdjust="spacing" textLength="55.5556" x="191.6355" y="151.2331">Request for AI</text><text fill="#000000" font-family="sans-serif" font-size="8.1149" lengthAdjust="spacing" textLength="38.0774" x="191.6355" y="160.7902">algorithm</text><path d="M202.2472,171.8652 L202.2472,225.5481 L337.0787,225.5481 L337.0787,178.1074 L330.8365,171.8652 L202.2472,171.8652 " fill="#FEFFDD" style="stroke:#181818;stroke-width:0.3121098626716604;"/><path d="M330.8365,171.8652 L330.8365,178.1074 L337.0787,178.1074 L330.8365,171.8652 " fill="#FEFFDD" style="stroke:#181818;stroke-width:0.3121098626716604;"/><text fill="#000000" font-family="sans-serif" font-size="8.1149" lengthAdjust="spacing" textLength="121.7228" x="205.9925" y="182.8318">通过配置，调度一个或多个算法。</text><text fill="#000000" font-family="sans-serif" font-size="8.1149" lengthAdjust="spacing" textLength="48.6891" x="205.9925" y="192.3889">算法的例子：</text><ellipse cx="209.4257" cy="198.9761" fill="#000000" rx="1.5605" ry="1.5605" style="stroke:#000000;stroke-width:0.0;"/><text fill="#000000" font-family="sans-serif" font-size="8.1149" lengthAdjust="spacing" textLength="83.6454" x="212.8589" y="201.9461">image quality control</text><ellipse cx="209.4257" cy="208.5333" fill="#000000" rx="1.5605" ry="1.5605" style="stroke:#000000;stroke-width:0.0;"/><text fill="#000000" font-family="sans-serif" font-size="8.1149" lengthAdjust="spacing" textLength="95.5056" x="212.8589" y="211.5032">patient acute conditions</text><ellipse cx="209.4257" cy="218.0904" fill="#000000" rx="1.5605" ry="1.5605" style="stroke:#000000;stroke-width:0.0;"/><text fill="#000000" font-family="sans-serif" font-size="8.1149" lengthAdjust="spacing" textLength="69.9126" x="212.8589" y="221.0603">coronary stenosis</text><polygon fill="#181818" points="197.2534,239.8199,191.0112,242.3167,197.2534,244.8136,194.7566,242.3167" style="stroke:#181818;stroke-width:0.6242197253433208;"/><line style="stroke:#181818;stroke-width:0.6242197253433208;" x1="193.5081" x2="265.9176" y1="242.3167" y2="242.3167"/><text fill="#000000" font-family="sans-serif" font-size="8.1149" lengthAdjust="spacing" textLength="43.0712" x="200.9988" y="239.3566">load image</text><polygon fill="#181818" points="259.0512,248.5589,265.2934,251.0558,259.0512,253.5527,261.5481,251.0558" style="stroke:#181818;stroke-width:0.6242197253433208;"/><line style="stroke:#181818;stroke-width:0.6242197253433208;stroke-dasharray:2.0,2.0;" x1="187.2659" x2="262.7965" y1="251.0558" y2="251.0558"/><path d="M250.9363,260.4191 L487.5156,260.4191 L487.5156,264.9825 L481.2734,271.2247 L250.9363,271.2247 L250.9363,260.4191 " fill="#EEEEEE" style="stroke:#000000;stroke-width:0.9363295880149812;"/><rect fill="none" height="73.8091" style="stroke:#000000;stroke-width:0.9363295880149812;" width="239.7004" x="250.9363" y="260.4191"/><text fill="#000000" font-family="sans-serif" font-size="8.1149" font-weight="bold" lengthAdjust="spacing" textLength="208.4894" x="260.2996" y="268.8887">Algorithm 1: CTA Quantification of stenotic lesion</text><polygon fill="#181818" points="356.4295,282.0303,362.6717,284.5272,356.4295,287.024,358.9263,284.5272" style="stroke:#181818;stroke-width:0.6242197253433208;"/><line style="stroke:#181818;stroke-width:0.6242197253433208;" x1="272.784" x2="360.1748" y1="284.5272" y2="284.5272"/><text fill="#000000" font-family="sans-serif" font-size="8.1149" lengthAdjust="spacing" textLength="69.2884" x="277.1536" y="281.567">Start AI algorithm</text><line style="stroke:#181818;stroke-width:0.6242197253433208;" x1="370.1623" x2="396.3795" y1="302.8234" y2="302.8234"/><line style="stroke:#181818;stroke-width:0.6242197253433208;" x1="396.3795" x2="396.3795" y1="302.8234" y2="310.9382"/><line style="stroke:#181818;stroke-width:0.6242197253433208;" x1="370.7865" x2="396.3795" y1="310.9382" y2="310.9382"/><polygon fill="#181818" points="377.0287,308.4414,370.7865,310.9382,377.0287,313.4351,374.5318,310.9382" style="stroke:#181818;stroke-width:0.6242197253433208;"/><text fill="#000000" font-family="sans-serif" font-size="8.1149" lengthAdjust="spacing" textLength="43.0712" x="374.5318" y="299.8632">calculation</text><polygon fill="#181818" points="279.6504,326.7376,273.4082,329.2345,279.6504,331.7313,277.1536,329.2345" style="stroke:#181818;stroke-width:0.6242197253433208;"/><line style="stroke:#181818;stroke-width:0.6242197253433208;stroke-dasharray:2.0,2.0;" x1="275.9051" x2="366.417" y1="329.2345" y2="329.2345"/><text fill="#000000" font-family="sans-serif" font-size="8.1149" lengthAdjust="spacing" textLength="76.1548" x="283.3958" y="326.2743">AI result / Findings</text><path d="M129.2135,341.7188 L129.2135,443.4667 L409.4881,443.4667 L409.4881,347.961 L403.2459,341.7188 L129.2135,341.7188 " fill="#FEFFDD" style="stroke:#181818;stroke-width:0.3121098626716604;"/><path d="M403.2459,341.7188 L403.2459,347.961 L409.4881,347.961 L403.2459,341.7188 " fill="#FEFFDD" style="stroke:#181818;stroke-width:0.3121098626716604;"/><ellipse cx="136.392" cy="349.7154" fill="#000000" rx="1.5605" ry="1.5605" style="stroke:#000000;stroke-width:0.0;"/><text fill="#000000" font-family="sans-serif" font-size="8.1149" lengthAdjust="spacing" textLength="86.1423" x="139.8252" y="352.6854">result standardization</text><ellipse cx="136.392" cy="359.2726" fill="#000000" rx="1.5605" ry="1.5605" style="stroke:#000000;stroke-width:0.0;"/><text fill="#000000" font-family="sans-serif" font-size="8.1149" lengthAdjust="spacing" textLength="138.5768" x="139.8252" y="362.2425">react based on result interpretation</text><text fill="#000000" font-family="sans-serif" font-size="8.1149" lengthAdjust="spacing" textLength="78.6517" x="132.9588" y="371.7997">- inform radiologist</text><text fill="#000000" font-family="sans-serif" font-size="8.1149" lengthAdjust="spacing" textLength="104.2447" x="142.9463" y="381.3568">after image quality control</text><text fill="#000000" font-family="sans-serif" font-size="8.1149" lengthAdjust="spacing" textLength="107.99" x="142.9463" y="390.9139">on patient acute conditions</text><ellipse cx="136.392" cy="397.5012" fill="#000000" rx="1.5605" ry="1.5605" style="stroke:#000000;stroke-width:0.0;"/><text fill="#000000" font-family="sans-serif" font-size="8.1149" lengthAdjust="spacing" textLength="232.2097" x="139.8252" y="400.4711">？算法调度: 计算资源的合理利用（错峰、分布式、优先级评估）</text><ellipse cx="136.392" cy="407.0583" fill="#000000" rx="1.5605" ry="1.5605" style="stroke:#000000;stroke-width:0.0;"/><text fill="#000000" font-family="sans-serif" font-size="8.1149" lengthAdjust="spacing" textLength="238.4519" x="139.8252" y="410.0282">？算法调度+可靠性: 尽早结束有问题算法，防止算法运行时间过长</text><ellipse cx="136.392" cy="416.6155" fill="#000000" rx="1.5605" ry="1.5605" style="stroke:#000000;stroke-width:0.0;"/><text fill="#000000" font-family="sans-serif" font-size="8.1149" lengthAdjust="spacing" textLength="168.5393" x="139.8252" y="419.5854">？时效性+可控性：保证算法在指定时间内完成</text><ellipse cx="136.392" cy="426.1726" fill="#000000" rx="1.5605" ry="1.5605" style="stroke:#000000;stroke-width:0.0;"/><text fill="#000000" font-family="sans-serif" font-size="8.1149" lengthAdjust="spacing" textLength="194.7566" x="139.8252" y="429.1425">？算法结果的统一：统一算法的结果，便于后续的处理</text><ellipse cx="136.392" cy="435.7298" fill="#000000" rx="1.5605" ry="1.5605" style="stroke:#000000;stroke-width:0.0;"/><text fill="#000000" font-family="sans-serif" font-size="8.1149" lengthAdjust="spacing" textLength="260.2996" x="139.8252" y="438.6997">？算法结果的可视化/报告/呈现：算法结果的可视化，便于识别异常事件</text><path d="M250.9363,451.0231 L441.9476,451.0231 L441.9476,455.5865 L435.7054,461.8287 L250.9363,461.8287 L250.9363,451.0231 " fill="#EEEEEE" style="stroke:#000000;stroke-width:0.9363295880149812;"/><rect fill="none" height="73.8091" style="stroke:#000000;stroke-width:0.9363295880149812;" width="236.5793" x="250.9363" y="451.0231"/><text fill="#000000" font-family="sans-serif" font-size="8.1149" font-weight="bold" lengthAdjust="spacing" textLength="162.9213" x="260.2996" y="459.4928">Algorithm 2: CT fractional flow reserve</text><polygon fill="#181818" points="418.8514,472.6343,425.0936,475.1312,418.8514,477.6281,421.3483,475.1312" style="stroke:#181818;stroke-width:0.6242197253433208;"/><line style="stroke:#181818;stroke-width:0.6242197253433208;" x1="272.784" x2="422.5968" y1="475.1312" y2="475.1312"/><text fill="#000000" font-family="sans-serif" font-size="8.1149" lengthAdjust="spacing" textLength="69.2884" x="277.1536" y="472.171">Start AI algorithm</text><line style="stroke:#181818;stroke-width:0.6242197253433208;" x1="432.5843" x2="458.8015" y1="493.4274" y2="493.4274"/><line style="stroke:#181818;stroke-width:0.6242197253433208;" x1="458.8015" x2="458.8015" y1="493.4274" y2="501.5423"/><line style="stroke:#181818;stroke-width:0.6242197253433208;" x1="433.2085" x2="458.8015" y1="501.5423" y2="501.5423"/><polygon fill="#181818" points="439.4507,499.0454,433.2085,501.5423,439.4507,504.0391,436.9538,501.5423" style="stroke:#181818;stroke-width:0.6242197253433208;"/><text fill="#000000" font-family="sans-serif" font-size="8.1149" lengthAdjust="spacing" textLength="43.0712" x="436.9538" y="490.4672">calculation</text><polygon fill="#181818" points="279.6504,517.3416,273.4082,519.8385,279.6504,522.3354,277.1536,519.8385" style="stroke:#181818;stroke-width:0.6242197253433208;"/><line style="stroke:#181818;stroke-width:0.6242197253433208;stroke-dasharray:2.0,2.0;" x1="275.9051" x2="428.839" y1="519.8385" y2="519.8385"/><text fill="#000000" font-family="sans-serif" font-size="8.1149" lengthAdjust="spacing" textLength="76.1548" x="283.3958" y="516.8783">AI result / Findings</text><path d="M187.2659,532.3229 L187.2659,566.655 L352.0599,566.655 L352.0599,538.5651 L345.8177,532.3229 L187.2659,532.3229 " fill="#FEFFDD" style="stroke:#181818;stroke-width:0.3121098626716604;"/><path d="M345.8177,532.3229 L345.8177,538.5651 L352.0599,538.5651 L345.8177,532.3229 " fill="#FEFFDD" style="stroke:#181818;stroke-width:0.3121098626716604;"/><ellipse cx="194.4444" cy="540.3195" fill="#000000" rx="1.5605" ry="1.5605" style="stroke:#000000;stroke-width:0.0;"/><text fill="#000000" font-family="sans-serif" font-size="8.1149" lengthAdjust="spacing" textLength="144.819" x="197.8777" y="543.2894">aggregate results from AI algorithms</text><ellipse cx="194.4444" cy="549.8766" fill="#000000" rx="1.5605" ry="1.5605" style="stroke:#000000;stroke-width:0.0;"/><text fill="#000000" font-family="sans-serif" font-size="8.1149" lengthAdjust="spacing" textLength="28.7141" x="197.8777" y="552.8465">？CDSS</text><ellipse cx="194.4444" cy="559.4338" fill="#000000" rx="1.5605" ry="1.5605" style="stroke:#000000;stroke-width:0.0;"/><text fill="#000000" font-family="sans-serif" font-size="8.1149" lengthAdjust="spacing" textLength="73.0337" x="197.8777" y="562.4037">? Framework for AI</text><polygon fill="#181818" points="194.1323,581.1632,187.8901,583.6601,194.1323,586.157,191.6355,583.6601" style="stroke:#181818;stroke-width:0.6242197253433208;"/><line style="stroke:#181818;stroke-width:0.6242197253433208;stroke-dasharray:2.0,2.0;" x1="190.387" x2="269.0387" y1="583.6601" y2="583.6601"/><text fill="#000000" font-family="sans-serif" font-size="8.1149" lengthAdjust="spacing" textLength="64.2946" x="197.8777" y="580.6999">Algorithm result</text><path d="M98.6267,591.7749 L98.6267,616.7437 L269.6629,616.7437 L269.6629,598.0171 L263.4207,591.7749 L98.6267,591.7749 " fill="#FEFFDD" style="stroke:#181818;stroke-width:0.3121098626716604;"/><path d="M263.4207,591.7749 L263.4207,598.0171 L269.6629,598.0171 L263.4207,591.7749 " fill="#FEFFDD" style="stroke:#181818;stroke-width:0.3121098626716604;"/><text fill="#000000" font-family="sans-serif" font-size="8.1149" lengthAdjust="spacing" textLength="157.9276" x="102.372" y="602.7414">User interactively manipulate the image.</text><text fill="#000000" font-family="sans-serif" font-size="8.1149" lengthAdjust="spacing" textLength="129.2135" x="102.372" y="612.2986">The final result is saved to PACS.</text><polygon fill="#181818" points="88.015,644.9848,81.7728,647.4817,88.015,649.9785,85.5181,647.4817" style="stroke:#181818;stroke-width:0.6242197253433208;"/><line style="stroke:#181818;stroke-width:0.6242197253433208;stroke-dasharray:2.0,2.0;" x1="84.2697" x2="183.5206" y1="647.4817" y2="647.4817"/><text fill="#000000" font-family="sans-serif" font-size="8.1149" lengthAdjust="spacing" textLength="82.397" x="91.7603" y="634.9644">AI Result / Structural</text><text fill="#000000" font-family="sans-serif" font-size="8.1149" lengthAdjust="spacing" textLength="23.7203" x="91.7603" y="644.5215">report</text><polygon fill="#181818" points="6.8664,663.281,0.6242,665.7779,6.8664,668.2748,4.3695,665.7779" style="stroke:#181818;stroke-width:0.6242197253433208;"/><line style="stroke:#181818;stroke-width:0.6242197253433208;" x1="3.1211" x2="80.5243" y1="665.7779" y2="665.7779"/><text fill="#000000" font-family="sans-serif" font-size="8.1149" lengthAdjust="spacing" textLength="66.1673" x="10.6117" y="662.8177">Structural Report</text><!--MD5=[af1cc208d39ecca541c38404655af6b9]
@startuml
title Flow of ISAI
skinparam maxMessageSize 150
scale 500 width

participant "RIS" as R
participant "Modality" as M
participant "ISAI" as I
participant "3rd party\nalgorithms" as S

 -> R : Imaging Order
R -> M++: Worklist
loop
M -> M: Scan
M -> I++: Request for AI algorithm
note over I
通过配置，调度一个或多个算法。
算法的例子：
* image quality control
* patient acute conditions
* coronary stenosis
end note
I -> M++: load image
return

group Algorithm 1: CTA Quantification of stenotic lesion
I -> S ++: Start AI algorithm
S -> S: calculation
return AI result / Findings
end

note over I
* result standardization
* react based on result interpretation
- inform radiologist
    after image quality control
    on patient acute conditions
* ？算法调度: 计算资源的合理利用（错峰、分布式、优先级评估）
* ？算法调度+可靠性: 尽早结束有问题算法，防止算法运行时间过长
* ？时效性+可控性：保证算法在指定时间内完成
* ？算法结果的统一：统一算法的结果，便于后续的处理
* ？算法结果的可视化/报告/呈现：算法结果的可视化，便于识别异常事件
end note

group Algorithm 2: CT fractional flow reserve
I -> Algorithm2 ++: Start AI algorithm
Algorithm2 -> Algorithm2: calculation
return AI result / Findings
end

note over I
* aggregate results from AI algorithms
* ？CDSS
* ? Framework for AI
end note

return Algorithm result
note over M
User interactively manipulate the image.
The final result is saved to PACS.
end note
end
return AI Result / Structural report
 <- R: Structural Report

@enduml

PlantUML version 1.2022.5(Sat Apr 30 18:55:52 CST 2022)
(GPL source distribution)
Java Runtime: OpenJDK Runtime Environment
JVM: OpenJDK 64-Bit Server VM
Default Encoding: UTF-8
Language: en
Country: US
--></g></svg>