<?xml version="1.0" encoding="UTF-8" standalone="no"?><svg xmlns="http://www.w3.org/2000/svg" xmlns:xlink="http://www.w3.org/1999/xlink" contentStyleType="text/css" height="714.1074px" preserveAspectRatio="none" style="width:500px;height:714px;background:#FFFFFF;" version="1.1" viewBox="0 0 500 714" width="500.6242px" zoomAndPan="magnify"><defs/><g><rect fill="#FFFFFF" height="581.8423" style="stroke:#181818;stroke-width:0.6242197253433208;" width="6.2422" x="181.0237" y="70.9099"/><rect fill="#FFFFFF" height="8.7391" style="stroke:#181818;stroke-width:0.6242197253433208;" width="6.2422" x="184.1448" y="218.9158"/><rect fill="#FFFFFF" height="419.9097" style="stroke:#181818;stroke-width:0.6242197253433208;" width="6.2422" x="266.5418" y="140.3495"/><rect fill="#FFFFFF" height="44.7073" style="stroke:#181818;stroke-width:0.6242197253433208;" width="6.2422" x="363.9201" y="261.1262"/><rect fill="#FFFFFF" height="44.7073" style="stroke:#181818;stroke-width:0.6242197253433208;" width="6.2422" x="426.3421" y="451.7303"/><rect height="545.2498" style="stroke:#000000;stroke-width:0.9363295880149812;fill:none;" width="373.9076" x="122.9713" y="80.2732"/><rect height="73.8091" style="stroke:#000000;stroke-width:0.9363295880149812;fill:none;" width="239.7004" x="250.9363" y="237.0182"/><rect height="73.8091" style="stroke:#000000;stroke-width:0.9363295880149812;fill:none;" width="236.5793" x="250.9363" y="427.6222"/><line style="stroke:#181818;stroke-width:0.3121098626716604;fill:none;stroke-dasharray:5.0,5.0;" x1="80.8365" x2="80.8365" y1="33.069" y2="682.2844"/><line style="stroke:#181818;stroke-width:0.3121098626716604;fill:none;stroke-dasharray:5.0,5.0;" x1="184.1448" x2="184.1448" y1="33.069" y2="682.2844"/><line style="stroke:#181818;stroke-width:0.3121098626716604;fill:none;stroke-dasharray:5.0,5.0;" x1="269.6629" x2="269.6629" y1="33.069" y2="682.2844"/><line style="stroke:#181818;stroke-width:0.3121098626716604;fill:none;stroke-dasharray:5.0,5.0;" x1="367.0412" x2="367.0412" y1="33.069" y2="682.2844"/><line style="stroke:#181818;stroke-width:0.3121098626716604;fill:none;stroke-dasharray:5.0,5.0;" x1="429.4632" x2="429.4632" y1="33.069" y2="682.2844"/><rect fill="#E2E2F0" height="19.0314" rx="1.5605" ry="1.5605" style="stroke:#181818;stroke-width:0.3121098626716604;" width="21.8477" x="70.2247" y="13.4134"/><text fill="#000000" font-family="sans-serif" font-size="8.7391" lengthAdjust="spacing" textLength="13.1086" x="74.5943" y="26.2319">RIS</text><rect fill="#E2E2F0" height="19.0314" rx="1.5605" ry="1.5605" style="stroke:#181818;stroke-width:0.3121098626716604;" width="21.8477" x="70.2247" y="681.6601"/><text fill="#000000" font-family="sans-serif" font-size="8.7391" lengthAdjust="spacing" textLength="13.1086" x="74.5943" y="694.4786">RIS</text><rect fill="#E2E2F0" height="19.0314" rx="1.5605" ry="1.5605" style="stroke:#181818;stroke-width:0.3121098626716604;" width="44.9438" x="161.6729" y="13.4134"/><text fill="#000000" font-family="sans-serif" font-size="8.7391" lengthAdjust="spacing" textLength="36.2047" x="166.0424" y="26.2319">Modality</text><rect fill="#E2E2F0" height="19.0314" rx="1.5605" ry="1.5605" style="stroke:#181818;stroke-width:0.3121098626716604;" width="44.9438" x="161.6729" y="681.6601"/><text fill="#000000" font-family="sans-serif" font-size="8.7391" lengthAdjust="spacing" textLength="36.2047" x="166.0424" y="694.4786">Modality</text><rect fill="#E2E2F0" height="19.0314" rx="1.5605" ry="1.5605" style="stroke:#181818;stroke-width:0.3121098626716604;" width="24.9688" x="257.1785" y="13.4134"/><text fill="#000000" font-family="sans-serif" font-size="8.7391" lengthAdjust="spacing" textLength="16.2297" x="261.5481" y="26.2319">ISAI</text><rect fill="#E2E2F0" height="19.0314" rx="1.5605" ry="1.5605" style="stroke:#181818;stroke-width:0.3121098626716604;" width="24.9688" x="257.1785" y="681.6601"/><text fill="#000000" font-family="sans-serif" font-size="8.7391" lengthAdjust="spacing" textLength="16.2297" x="261.5481" y="694.4786">ISAI</text><rect fill="#E2E2F0" height="29.3237" rx="1.5605" ry="1.5605" style="stroke:#181818;stroke-width:0.3121098626716604;" width="54.9313" x="339.5755" y="3.1211"/><text fill="#000000" font-family="sans-serif" font-size="8.7391" lengthAdjust="spacing" textLength="39.3258" x="347.3783" y="15.9395">3rd party</text><text fill="#000000" font-family="sans-serif" font-size="8.7391" lengthAdjust="spacing" textLength="46.1923" x="343.9451" y="26.2319">algorithms</text><rect fill="#E2E2F0" height="29.3237" rx="1.5605" ry="1.5605" style="stroke:#181818;stroke-width:0.3121098626716604;" width="54.9313" x="339.5755" y="681.6601"/><text fill="#000000" font-family="sans-serif" font-size="8.7391" lengthAdjust="spacing" textLength="39.3258" x="347.3783" y="694.4786">3rd party</text><text fill="#000000" font-family="sans-serif" font-size="8.7391" lengthAdjust="spacing" textLength="46.1923" x="343.9451" y="704.7709">algorithms</text><rect fill="#E2E2F0" height="19.0314" rx="1.5605" ry="1.5605" style="stroke:#181818;stroke-width:0.3121098626716604;" width="57.4282" x="400.7491" y="13.4134"/><text fill="#000000" font-family="sans-serif" font-size="8.7391" lengthAdjust="spacing" textLength="48.6891" x="405.1186" y="26.2319">Algorithm2</text><rect fill="#E2E2F0" height="19.0314" rx="1.5605" ry="1.5605" style="stroke:#181818;stroke-width:0.3121098626716604;" width="57.4282" x="400.7491" y="681.6601"/><text fill="#000000" font-family="sans-serif" font-size="8.7391" lengthAdjust="spacing" textLength="48.6891" x="405.1186" y="694.4786">Algorithm2</text><rect fill="#FFFFFF" height="581.8423" style="stroke:#181818;stroke-width:0.6242197253433208;" width="6.2422" x="181.0237" y="70.9099"/><rect fill="#FFFFFF" height="8.7391" style="stroke:#181818;stroke-width:0.6242197253433208;" width="6.2422" x="184.1448" y="218.9158"/><rect fill="#FFFFFF" height="419.9097" style="stroke:#181818;stroke-width:0.6242197253433208;" width="6.2422" x="266.5418" y="140.3495"/><rect fill="#FFFFFF" height="44.7073" style="stroke:#181818;stroke-width:0.6242197253433208;" width="6.2422" x="363.9201" y="261.1262"/><rect fill="#FFFFFF" height="44.7073" style="stroke:#181818;stroke-width:0.6242197253433208;" width="6.2422" x="426.3421" y="451.7303"/><polygon fill="#181818" points="73.6579,50.1168,79.9001,52.6137,73.6579,55.1106,76.1548,52.6137" style="stroke:#181818;stroke-width:0.6242197253433208;"/><line style="stroke:#181818;stroke-width:0.6242197253433208;" x1="0" x2="77.4032" y1="52.6137" y2="52.6137"/><text fill="#000000" font-family="sans-serif" font-size="8.1149" lengthAdjust="spacing" textLength="56.1798" x="4.3695" y="49.6535">Imaging Order</text><polygon fill="#181818" points="173.5331,68.413,179.7753,70.9099,173.5331,73.4068,176.03,70.9099" style="stroke:#181818;stroke-width:0.6242197253433208;"/><line style="stroke:#181818;stroke-width:0.6242197253433208;" x1="81.1486" x2="177.2784" y1="70.9099" y2="70.9099"/><text fill="#000000" font-family="sans-serif" font-size="8.1149" lengthAdjust="spacing" textLength="32.4594" x="85.5181" y="67.9497">Worklist</text><path d="M122.9713,80.2732 L169.1635,80.2732 L169.1635,84.8366 L162.9213,91.0788 L122.9713,91.0788 L122.9713,80.2732 " fill="#EEEEEE" style="stroke:#000000;stroke-width:0.9363295880149812;"/><rect fill="none" height="545.2498" style="stroke:#000000;stroke-width:0.9363295880149812;" width="373.9076" x="122.9713" y="80.2732"/><text fill="#000000" font-family="sans-serif" font-size="8.1149" font-weight="bold" lengthAdjust="spacing" textLength="18.1024" x="132.3346" y="88.7428">loop</text><line style="stroke:#181818;stroke-width:0.6242197253433208;" x1="187.2659" x2="213.4831" y1="104.3812" y2="104.3812"/><line style="stroke:#181818;stroke-width:0.6242197253433208;" x1="213.4831" x2="213.4831" y1="104.3812" y2="112.4961"/><line style="stroke:#181818;stroke-width:0.6242197253433208;" x1="187.8901" x2="213.4831" y1="112.4961" y2="112.4961"/><polygon fill="#181818" points="194.1323,109.9992,187.8901,112.4961,194.1323,114.993,191.6355,112.4961" style="stroke:#181818;stroke-width:0.6242197253433208;"/><text fill="#000000" font-family="sans-serif" font-size="8.1149" lengthAdjust="spacing" textLength="18.1024" x="191.6355" y="101.4211">Scan</text><polygon fill="#181818" points="259.0512,137.8526,265.2934,140.3495,259.0512,142.8463,261.5481,140.3495" style="stroke:#181818;stroke-width:0.6242197253433208;"/><line style="stroke:#181818;stroke-width:0.6242197253433208;" x1="187.2659" x2="262.7965" y1="140.3495" y2="140.3495"/><text fill="#000000" font-family="sans-serif" font-size="8.1149" lengthAdjust="spacing" textLength="55.5556" x="191.6355" y="127.8322">Request for AI</text><text fill="#000000" font-family="sans-serif" font-size="8.1149" lengthAdjust="spacing" textLength="38.0774" x="191.6355" y="137.3893">algorithm</text><path d="M202.2472,148.4643 L202.2472,202.1472 L337.0787,202.1472 L337.0787,154.7065 L330.8365,148.4643 L202.2472,148.4643 " fill="#FEFFDD" style="stroke:#181818;stroke-width:0.3121098626716604;"/><path d="M330.8365,148.4643 L330.8365,154.7065 L337.0787,154.7065 L330.8365,148.4643 " fill="#FEFFDD" style="stroke:#181818;stroke-width:0.3121098626716604;"/><text fill="#000000" font-family="sans-serif" font-size="8.1149" lengthAdjust="spacing" textLength="121.7228" x="205.9925" y="159.4308">通过配置，调度一个或多个算法。</text><text fill="#000000" font-family="sans-serif" font-size="8.1149" lengthAdjust="spacing" textLength="48.6891" x="205.9925" y="168.988">算法的例子：</text><ellipse cx="209.4257" cy="175.5752" fill="#000000" rx="1.5605" ry="1.5605" style="stroke:#000000;stroke-width:0.0;"/><text fill="#000000" font-family="sans-serif" font-size="8.1149" lengthAdjust="spacing" textLength="83.6454" x="212.8589" y="178.5451">image quality control</text><ellipse cx="209.4257" cy="185.1324" fill="#000000" rx="1.5605" ry="1.5605" style="stroke:#000000;stroke-width:0.0;"/><text fill="#000000" font-family="sans-serif" font-size="8.1149" lengthAdjust="spacing" textLength="95.5056" x="212.8589" y="188.1023">patient acute conditions</text><ellipse cx="209.4257" cy="194.6895" fill="#000000" rx="1.5605" ry="1.5605" style="stroke:#000000;stroke-width:0.0;"/><text fill="#000000" font-family="sans-serif" font-size="8.1149" lengthAdjust="spacing" textLength="69.9126" x="212.8589" y="197.6594">coronary stenosis</text><polygon fill="#181818" points="197.2534,216.4189,191.0112,218.9158,197.2534,221.4127,194.7566,218.9158" style="stroke:#181818;stroke-width:0.6242197253433208;"/><line style="stroke:#181818;stroke-width:0.6242197253433208;" x1="193.5081" x2="265.9176" y1="218.9158" y2="218.9158"/><text fill="#000000" font-family="sans-serif" font-size="8.1149" lengthAdjust="spacing" textLength="43.0712" x="200.9988" y="215.9556">load image</text><polygon fill="#181818" points="259.0512,225.158,265.2934,227.6549,259.0512,230.1518,261.5481,227.6549" style="stroke:#181818;stroke-width:0.6242197253433208;"/><line style="stroke:#181818;stroke-width:0.6242197253433208;stroke-dasharray:2.0,2.0;" x1="187.2659" x2="262.7965" y1="227.6549" y2="227.6549"/><path d="M250.9363,237.0182 L487.5156,237.0182 L487.5156,241.5816 L481.2734,247.8238 L250.9363,247.8238 L250.9363,237.0182 " fill="#EEEEEE" style="stroke:#000000;stroke-width:0.9363295880149812;"/><rect fill="none" height="73.8091" style="stroke:#000000;stroke-width:0.9363295880149812;" width="239.7004" x="250.9363" y="237.0182"/><text fill="#000000" font-family="sans-serif" font-size="8.1149" font-weight="bold" lengthAdjust="spacing" textLength="208.4894" x="260.2996" y="245.4878">Algorithm 1: CTA Quantification of stenotic lesion</text><polygon fill="#181818" points="356.4295,258.6294,362.6717,261.1262,356.4295,263.6231,358.9263,261.1262" style="stroke:#181818;stroke-width:0.6242197253433208;"/><line style="stroke:#181818;stroke-width:0.6242197253433208;" x1="272.784" x2="360.1748" y1="261.1262" y2="261.1262"/><text fill="#000000" font-family="sans-serif" font-size="8.1149" lengthAdjust="spacing" textLength="69.2884" x="277.1536" y="258.1661">Start AI algorithm</text><line style="stroke:#181818;stroke-width:0.6242197253433208;" x1="370.1623" x2="396.3795" y1="279.4225" y2="279.4225"/><line style="stroke:#181818;stroke-width:0.6242197253433208;" x1="396.3795" x2="396.3795" y1="279.4225" y2="287.5373"/><line style="stroke:#181818;stroke-width:0.6242197253433208;" x1="370.7865" x2="396.3795" y1="287.5373" y2="287.5373"/><polygon fill="#181818" points="377.0287,285.0404,370.7865,287.5373,377.0287,290.0342,374.5318,287.5373" style="stroke:#181818;stroke-width:0.6242197253433208;"/><text fill="#000000" font-family="sans-serif" font-size="8.1149" lengthAdjust="spacing" textLength="43.0712" x="374.5318" y="276.4623">calculation</text><polygon fill="#181818" points="279.6504,303.3366,273.4082,305.8335,279.6504,308.3304,277.1536,305.8335" style="stroke:#181818;stroke-width:0.6242197253433208;"/><line style="stroke:#181818;stroke-width:0.6242197253433208;stroke-dasharray:2.0,2.0;" x1="275.9051" x2="366.417" y1="305.8335" y2="305.8335"/><text fill="#000000" font-family="sans-serif" font-size="8.1149" lengthAdjust="spacing" textLength="76.1548" x="283.3958" y="302.8734">AI result / Findings</text><path d="M129.2135,318.3179 L129.2135,420.0657 L409.4881,420.0657 L409.4881,324.5601 L403.2459,318.3179 L129.2135,318.3179 " fill="#FEFFDD" style="stroke:#181818;stroke-width:0.3121098626716604;"/><path d="M403.2459,318.3179 L403.2459,324.5601 L409.4881,324.5601 L403.2459,318.3179 " fill="#FEFFDD" style="stroke:#181818;stroke-width:0.3121098626716604;"/><ellipse cx="136.392" cy="326.3145" fill="#000000" rx="1.5605" ry="1.5605" style="stroke:#000000;stroke-width:0.0;"/><text fill="#000000" font-family="sans-serif" font-size="8.1149" lengthAdjust="spacing" textLength="86.1423" x="139.8252" y="329.2844">result standardization</text><ellipse cx="136.392" cy="335.8717" fill="#000000" rx="1.5605" ry="1.5605" style="stroke:#000000;stroke-width:0.0;"/><text fill="#000000" font-family="sans-serif" font-size="8.1149" lengthAdjust="spacing" textLength="138.5768" x="139.8252" y="338.8416">react based on result interpretation</text><text fill="#000000" font-family="sans-serif" font-size="8.1149" lengthAdjust="spacing" textLength="78.6517" x="132.9588" y="348.3987">- inform radiologist</text><text fill="#000000" font-family="sans-serif" font-size="8.1149" lengthAdjust="spacing" textLength="104.2447" x="142.9463" y="357.9559">after image quality control</text><text fill="#000000" font-family="sans-serif" font-size="8.1149" lengthAdjust="spacing" textLength="107.99" x="142.9463" y="367.513">on patient acute conditions</text><ellipse cx="136.392" cy="374.1002" fill="#000000" rx="1.5605" ry="1.5605" style="stroke:#000000;stroke-width:0.0;"/><text fill="#000000" font-family="sans-serif" font-size="8.1149" lengthAdjust="spacing" textLength="232.2097" x="139.8252" y="377.0702">？算法调度: 计算资源的合理利用（错峰、分布式、优先级评估）</text><ellipse cx="136.392" cy="383.6574" fill="#000000" rx="1.5605" ry="1.5605" style="stroke:#000000;stroke-width:0.0;"/><text fill="#000000" font-family="sans-serif" font-size="8.1149" lengthAdjust="spacing" textLength="238.4519" x="139.8252" y="386.6273">？算法调度+可靠性: 尽早结束有问题算法，防止算法运行时间过长</text><ellipse cx="136.392" cy="393.2145" fill="#000000" rx="1.5605" ry="1.5605" style="stroke:#000000;stroke-width:0.0;"/><text fill="#000000" font-family="sans-serif" font-size="8.1149" lengthAdjust="spacing" textLength="168.5393" x="139.8252" y="396.1845">？时效性+可控性：保证算法在指定时间内完成</text><ellipse cx="136.392" cy="402.7717" fill="#000000" rx="1.5605" ry="1.5605" style="stroke:#000000;stroke-width:0.0;"/><text fill="#000000" font-family="sans-serif" font-size="8.1149" lengthAdjust="spacing" textLength="194.7566" x="139.8252" y="405.7416">？算法结果的统一：统一算法的结果，便于后续的处理</text><ellipse cx="136.392" cy="412.3288" fill="#000000" rx="1.5605" ry="1.5605" style="stroke:#000000;stroke-width:0.0;"/><text fill="#000000" font-family="sans-serif" font-size="8.1149" lengthAdjust="spacing" textLength="260.2996" x="139.8252" y="415.2987">？算法结果的可视化/报告/呈现：算法结果的可视化，便于识别异常事件</text><path d="M250.9363,427.6222 L441.9476,427.6222 L441.9476,432.1856 L435.7054,438.4278 L250.9363,438.4278 L250.9363,427.6222 " fill="#EEEEEE" style="stroke:#000000;stroke-width:0.9363295880149812;"/><rect fill="none" height="73.8091" style="stroke:#000000;stroke-width:0.9363295880149812;" width="236.5793" x="250.9363" y="427.6222"/><text fill="#000000" font-family="sans-serif" font-size="8.1149" font-weight="bold" lengthAdjust="spacing" textLength="162.9213" x="260.2996" y="436.0918">Algorithm 2: CT fractional flow reserve</text><polygon fill="#181818" points="418.8514,449.2334,425.0936,451.7303,418.8514,454.2271,421.3483,451.7303" style="stroke:#181818;stroke-width:0.6242197253433208;"/><line style="stroke:#181818;stroke-width:0.6242197253433208;" x1="272.784" x2="422.5968" y1="451.7303" y2="451.7303"/><text fill="#000000" font-family="sans-serif" font-size="8.1149" lengthAdjust="spacing" textLength="69.2884" x="277.1536" y="448.7701">Start AI algorithm</text><line style="stroke:#181818;stroke-width:0.6242197253433208;" x1="432.5843" x2="458.8015" y1="470.0265" y2="470.0265"/><line style="stroke:#181818;stroke-width:0.6242197253433208;" x1="458.8015" x2="458.8015" y1="470.0265" y2="478.1413"/><line style="stroke:#181818;stroke-width:0.6242197253433208;" x1="433.2085" x2="458.8015" y1="478.1413" y2="478.1413"/><polygon fill="#181818" points="439.4507,475.6445,433.2085,478.1413,439.4507,480.6382,436.9538,478.1413" style="stroke:#181818;stroke-width:0.6242197253433208;"/><text fill="#000000" font-family="sans-serif" font-size="8.1149" lengthAdjust="spacing" textLength="43.0712" x="436.9538" y="467.0663">calculation</text><polygon fill="#181818" points="279.6504,493.9407,273.4082,496.4376,279.6504,498.9344,277.1536,496.4376" style="stroke:#181818;stroke-width:0.6242197253433208;"/><line style="stroke:#181818;stroke-width:0.6242197253433208;stroke-dasharray:2.0,2.0;" x1="275.9051" x2="428.839" y1="496.4376" y2="496.4376"/><text fill="#000000" font-family="sans-serif" font-size="8.1149" lengthAdjust="spacing" textLength="76.1548" x="283.3958" y="493.4774">AI result / Findings</text><path d="M187.2659,508.922 L187.2659,543.254 L352.0599,543.254 L352.0599,515.1642 L345.8177,508.922 L187.2659,508.922 " fill="#FEFFDD" style="stroke:#181818;stroke-width:0.3121098626716604;"/><path d="M345.8177,508.922 L345.8177,515.1642 L352.0599,515.1642 L345.8177,508.922 " fill="#FEFFDD" style="stroke:#181818;stroke-width:0.3121098626716604;"/><ellipse cx="194.4444" cy="516.9185" fill="#000000" rx="1.5605" ry="1.5605" style="stroke:#000000;stroke-width:0.0;"/><text fill="#000000" font-family="sans-serif" font-size="8.1149" lengthAdjust="spacing" textLength="144.819" x="197.8777" y="519.8885">aggregate results from AI algorithms</text><ellipse cx="194.4444" cy="526.4757" fill="#000000" rx="1.5605" ry="1.5605" style="stroke:#000000;stroke-width:0.0;"/><text fill="#000000" font-family="sans-serif" font-size="8.1149" lengthAdjust="spacing" textLength="28.7141" x="197.8777" y="529.4456">？CDSS</text><ellipse cx="194.4444" cy="536.0328" fill="#000000" rx="1.5605" ry="1.5605" style="stroke:#000000;stroke-width:0.0;"/><text fill="#000000" font-family="sans-serif" font-size="8.1149" lengthAdjust="spacing" textLength="73.0337" x="197.8777" y="539.0028">? Framework for AI</text><polygon fill="#181818" points="194.1323,557.7623,187.8901,560.2591,194.1323,562.756,191.6355,560.2591" style="stroke:#181818;stroke-width:0.6242197253433208;"/><line style="stroke:#181818;stroke-width:0.6242197253433208;stroke-dasharray:2.0,2.0;" x1="190.387" x2="269.0387" y1="560.2591" y2="560.2591"/><text fill="#000000" font-family="sans-serif" font-size="8.1149" lengthAdjust="spacing" textLength="64.2946" x="197.8777" y="557.299">Algorithm result</text><path d="M142.9463,568.374 L142.9463,622.0569 L224.7191,622.0569 L224.7191,574.6162 L218.4769,568.374 L142.9463,568.374 " fill="#FEFFDD" style="stroke:#181818;stroke-width:0.3121098626716604;"/><path d="M218.4769,568.374 L218.4769,574.6162 L224.7191,574.6162 L218.4769,568.374 " fill="#FEFFDD" style="stroke:#181818;stroke-width:0.3121098626716604;"/><text fill="#000000" font-family="sans-serif" font-size="8.1149" lengthAdjust="spacing" textLength="68.04" x="146.6916" y="579.3405">User interactively</text><text fill="#000000" font-family="sans-serif" font-size="8.1149" lengthAdjust="spacing" textLength="58.6767" x="146.6916" y="588.8977">manipulate the</text><text fill="#000000" font-family="sans-serif" font-size="8.1149" lengthAdjust="spacing" textLength="26.2172" x="146.6916" y="598.4548">image.</text><text fill="#000000" font-family="sans-serif" font-size="8.1149" lengthAdjust="spacing" textLength="68.6642" x="146.6916" y="608.012">The final result is</text><text fill="#000000" font-family="sans-serif" font-size="8.1149" lengthAdjust="spacing" textLength="58.0524" x="146.6916" y="617.5691">saved to PACS.</text><polygon fill="#181818" points="88.015,650.2553,81.7728,652.7522,88.015,655.2491,85.5181,652.7522" style="stroke:#181818;stroke-width:0.6242197253433208;"/><line style="stroke:#181818;stroke-width:0.6242197253433208;stroke-dasharray:2.0,2.0;" x1="84.2697" x2="183.5206" y1="652.7522" y2="652.7522"/><text fill="#000000" font-family="sans-serif" font-size="8.1149" lengthAdjust="spacing" textLength="82.397" x="91.7603" y="640.2349">AI Result / Structural</text><text fill="#000000" font-family="sans-serif" font-size="8.1149" lengthAdjust="spacing" textLength="23.7203" x="91.7603" y="649.792">report</text><polygon fill="#181818" points="6.8664,668.5515,0.6242,671.0484,6.8664,673.5453,4.3695,671.0484" style="stroke:#181818;stroke-width:0.6242197253433208;"/><line style="stroke:#181818;stroke-width:0.6242197253433208;" x1="3.1211" x2="80.5243" y1="671.0484" y2="671.0484"/><text fill="#000000" font-family="sans-serif" font-size="8.1149" lengthAdjust="spacing" textLength="66.1673" x="10.6117" y="668.0882">Structural Report</text><!--MD5=[67c86cfb5fd1b0e65d0142ecf1cb4d69]
@startuml
skinparam maxMessageSize 150
scale 500 width

'actor "User" as U
participant "RIS" as R
participant "Modality" as M
participant "ISAI" as I
participant "3rd party\nalgorithms" as S

 -> R : Imaging Order
R -> M++: Worklist
loop
M -> M: Scan
M -> I++: Request for AI algorithm
note over I
通过配置，调度一个或多个算法。
算法的例子：
* image quality control
* patient acute conditions
* coronary stenosis
end note
I -> M++: load image
return

group Algorithm 1: CTA Quantification of stenotic lesion
I -> S ++: Start AI algorithm
S -> S: calculation
return AI result / Findings
end

note over I
* result standardization
* react based on result interpretation
- inform radiologist
    after image quality control
    on patient acute conditions
* ？算法调度: 计算资源的合理利用（错峰、分布式、优先级评估）
* ？算法调度+可靠性: 尽早结束有问题算法，防止算法运行时间过长
* ？时效性+可控性：保证算法在指定时间内完成
* ？算法结果的统一：统一算法的结果，便于后续的处理
* ？算法结果的可视化/报告/呈现：算法结果的可视化，便于识别异常事件
end note

group Algorithm 2: CT fractional flow reserve
I -> Algorithm2 ++: Start AI algorithm
Algorithm2 -> Algorithm2: calculation
return AI result / Findings
end

note over I
* aggregate results from AI algorithms
* ？CDSS
* ? Framework for AI
end note

return Algorithm result
note over M
User interactively
manipulate the
image.
The final result is
saved to PACS.
end note
end
return AI Result / Structural report
 <- R: Structural Report




@enduml

@startuml
skinparam maxMessageSize 150
scale 500 width

participant "RIS" as R
participant "Modality" as M
participant "ISAI" as I
participant "3rd party\nalgorithms" as S

 -> R : Imaging Order
R -> M++: Worklist
loop
M -> M: Scan
M -> I++: Request for AI algorithm
note over I
通过配置，调度一个或多个算法。
算法的例子：
* image quality control
* patient acute conditions
* coronary stenosis
end note
I -> M++: load image
return

group Algorithm 1: CTA Quantification of stenotic lesion
I -> S ++: Start AI algorithm
S -> S: calculation
return AI result / Findings
end

note over I
* result standardization
* react based on result interpretation
- inform radiologist
    after image quality control
    on patient acute conditions
* ？算法调度: 计算资源的合理利用（错峰、分布式、优先级评估）
* ？算法调度+可靠性: 尽早结束有问题算法，防止算法运行时间过长
* ？时效性+可控性：保证算法在指定时间内完成
* ？算法结果的统一：统一算法的结果，便于后续的处理
* ？算法结果的可视化/报告/呈现：算法结果的可视化，便于识别异常事件
end note

group Algorithm 2: CT fractional flow reserve
I -> Algorithm2 ++: Start AI algorithm
Algorithm2 -> Algorithm2: calculation
return AI result / Findings
end

note over I
* aggregate results from AI algorithms
* ？CDSS
* ? Framework for AI
end note

return Algorithm result
note over M
User interactively
manipulate the
image.
The final result is
saved to PACS.
end note
end
return AI Result / Structural report
 <- R: Structural Report




@enduml

PlantUML version 1.2022.5(Sat Apr 30 18:55:52 CST 2022)
(GPL source distribution)
Java Runtime: OpenJDK Runtime Environment
JVM: OpenJDK 64-Bit Server VM
Default Encoding: UTF-8
Language: en
Country: US
--></g></svg>